<svg xmlns="http://www.w3.org/2000/svg" width="200" height="200" viewBox="0 0 200 200"><g fill="#fff"><path d="M106.715 63.771L95.69 74.795 74.43 53.536 53.17 74.795 42.146 63.771l32.285-32.284zm42.519 42.52l-32.284 32.284-32.284-32.284L95.69 95.267l21.26 21.259 21.26-21.259z"/><path d="M149.234 63.771L116.95 96.055l-11.024-11.024 21.26-21.26-21.26-21.259 11.024-11.025zm-63.779 63.78l-11.024 11.023-32.285-32.283 32.285-32.284 11.024 11.024-21.26 21.26z"/></g><path d="M27.757 155.624l5.632 11.926h-2.637l-3.403-7.247-3.691 7.247h-2.671l6.074-11.926h.696zm13.529 6.873c-.391-.103-1.123-.289-1.803-.749-.953-.629-1.48-1.548-1.531-2.688-.051-.953.255-1.787.867-2.434.885-.918 2.161-1.174 2.773-1.174 1.735 0 2.705.63 3.572 1.191l.392.255-1.242 2.024-.425-.271c-.766-.494-1.259-.817-2.297-.817-.153 0-.749.119-1.055.442-.103.103-.221.29-.204.681.017.612.442.953 1.531 1.226.136.033.237.067.34.102 1.14.392 2.024.919 2.637 1.582.613.681.936 1.48.936 2.331 0 .834-.357 1.701-.953 2.365a3.626 3.626 0 0 1-2.74 1.225 7.06 7.06 0 0 1-2.092-.289 6.584 6.584 0 0 1-2.841-1.804l1.735-1.633c1.259 1.344 2.671 1.344 3.198 1.344.987 0 1.311-.901 1.311-1.208 0-.646-.732-1.242-1.974-1.667l-.051-.018-.084-.016zm14.813-6.873l5.632 11.926h-2.637l-3.403-7.247-3.692 7.247h-2.671l6.074-11.926h.697zm19.019 11.926l-6.703-6.958v6.958h-2.382v-11.926h.749l6.583 6.669v-6.669h2.383v11.926h-.63zm17.838-5.972a6.187 6.187 0 0 1-6.176 6.176 6.186 6.186 0 0 1-6.176-6.176 6.187 6.187 0 0 1 6.176-6.176c3.402 0 6.176 2.774 6.176 6.176zm-9.902 0a3.725 3.725 0 1 0 7.452 0c0-2.059-1.667-3.726-3.726-3.726s-3.726 1.668-3.726 3.726zm25.443.511l-.919.936v4.509h-2.382v-11.909h2.382v3.845l3.488-3.845h3.215l-4.168 4.661 4.271 7.248h-2.841l-3.046-5.445zm16.669-6.465l5.632 11.926h-2.637l-3.403-7.247-3.691 7.247h-2.671l6.073-11.926h.697zm16.864 0v7.996h-.017v.017c0 2.161-1.753 3.913-3.896 3.913a3.913 3.913 0 0 1-3.913-3.913v-.017h2.382v.017c0 .408.153.783.442 1.072s.681.459 1.089.459.782-.17 1.072-.459c.289-.289.442-.664.442-1.072v-.017h.051v-5.836h-2.519l.052-2.16h4.815zm5.735 11.909v-11.909h2.382v11.909h-2.382zm16.868-11.909l-3.879 7.554v4.372h-2.382v-4.372l-3.896-7.554h2.638l2.449 4.491 2.434-4.491h2.636zm8.638 0l5.632 11.926h-2.637l-3.403-7.247-3.691 7.247h-2.671l6.073-11.926h.697z" fill="#fff"/></svg>