<svg xmlns="http://www.w3.org/2000/svg" width="200" height="100" viewBox="0 0 200 100"><path fill="#fff" stroke="#fff" stroke-miterlimit="10" d="M43.061 38.042l-6.202 6.201L24.9 32.284 12.941 44.243l-6.2-6.201L24.9 19.882zm23.918 23.917L48.818 80.118l-18.16-18.159 6.201-6.201 11.959 11.958 11.959-11.958z"/><path fill="#fff" stroke="#fff" stroke-miterlimit="10" d="M66.979 38.042L48.818 56.201 42.617 50l11.959-11.958-11.959-11.959 6.201-6.201zM31.102 73.917L24.9 80.118 6.741 61.959 24.9 43.799 31.102 50 19.143 61.959zm59.554-44.322l8.445 17.885h-3.955l-5.102-10.868-5.537 10.868h-4.005l9.108-17.885h1.046zm21.494 10.307c-.587-.153-1.684-.434-2.704-1.123-1.429-.943-2.22-2.321-2.296-4.03-.077-1.429.383-2.68 1.301-3.648 1.326-1.378 3.24-1.761 4.158-1.761 2.603 0 4.057.944 5.357 1.786l.588.383-1.863 3.036-.638-.408c-1.147-.74-1.888-1.225-3.444-1.225-.229 0-1.122.179-1.582.663-.152.153-.331.434-.306 1.021.025.918.663 1.429 2.296 1.837.204.051.357.102.511.153 1.709.587 3.036 1.377 3.954 2.372.918 1.021 1.403 2.22 1.403 3.495 0 1.251-.536 2.552-1.429 3.547a5.435 5.435 0 0 1-4.107 1.837c-.791 0-1.862-.051-3.139-.434-1.607-.511-3.035-1.403-4.26-2.705l2.602-2.449c1.889 2.016 4.006 2.016 4.797 2.016 1.479 0 1.965-1.352 1.965-1.812 0-.969-1.098-1.862-2.96-2.5l-.077-.025-.127-.026zm23.414-10.307l8.444 17.885h-3.954l-5.103-10.868-5.536 10.868h-4.006l9.108-17.885h1.047zm29.73 17.884l-10.052-10.435v10.435h-3.572V29.595h1.123l9.873 10.001V29.595h3.571V47.48h-.943zm27.964-8.955c0 5.103-4.159 9.262-9.262 9.262s-9.261-4.159-9.261-9.262 4.158-9.261 9.261-9.261 9.262 4.159 9.262 9.261zm-14.849 0c0 3.087 2.5 5.588 5.587 5.588s5.588-2.501 5.588-5.588-2.501-5.587-5.588-5.587-5.587 2.501-5.587 5.587zM90.564 64.55l-.92.936v4.509h-2.381v-11.91h2.381v3.846l3.487-3.846h3.216l-4.168 4.662 4.271 7.248h-2.842l-3.044-5.445zm21.612-6.466l5.632 11.927h-2.637l-3.403-7.248-3.692 7.248h-2.67l6.073-11.927h.697zm21.849 0v7.997h-.018v.017c0 2.161-1.752 3.913-3.896 3.913a3.913 3.913 0 0 1-3.913-3.913v-.017h2.382v.017c0 .408.153.782.442 1.072.289.289.68.459 1.089.459.408 0 .782-.17 1.071-.459.289-.29.443-.664.443-1.072v-.017h.051v-5.836h-2.519l.052-2.161h4.816zm11.709 11.91v-11.91h2.383v11.91h-2.383zm23.118-11.91l-3.879 7.555v4.372h-2.382v-4.372l-3.896-7.555h2.637l2.45 4.492 2.434-4.492h2.636zm14.172 0l5.631 11.927h-2.637l-3.402-7.248-3.692 7.248h-2.671l6.073-11.927h.698z"/></svg>