<?xml version="1.0" encoding="utf-8"?>
<!-- Generator: Adobe Illustrator 21.0.2, SVG Export Plug-In . SVG Version: 6.00 Build 0)  -->
<svg version="1.1" id="レイヤー_1" xmlns="http://www.w3.org/2000/svg" xmlns:xlink="http://www.w3.org/1999/xlink" x="0px"
	 y="0px" viewBox="0 0 200 200" style="enable-background:new 0 0 200 200;" xml:space="preserve">
<style type="text/css">
	.st0{fill:#FFFFFF;}
</style>
<g>
	<line class="st0" x1="36.4" y1="73.6" x2="36.4" y2="73.6"/>
	<line class="st0" x1="36.4" y1="73.6" x2="36.4" y2="73.6"/>
	<polyline class="st0" points="77.4,144.5 70.1,132 130.6,27.2 104,27.2 111.3,14.6 152.4,14.6 145.2,27.2 77.4,144.5 77.4,144.5 	
		"/>
	<polygon class="st0" points="92.3,170.4 175,27.2 145.2,27.2 152.4,14.6 196.8,14.6 99.6,183 	"/>
	<polyline class="st0" points="49.6,96.3 56.8,108.9 56.8,108.9 104,27.2 111.3,14.6 70.5,14.6 63.2,27.2 89.5,27.2 49.6,96.3 
		49.6,96.3 	"/>
	<path class="st0" d="M36.4,73.6L36.4,73.6L36.4,73.6l26.8-46.4l7.3-12.6H2.4l7.3,12.6h39.1L29.2,61L36.4,73.6z"/>
</g>
</svg>
