<?xml version="1.0" encoding="iso-8859-1"?>
<!-- Generator: Adobe Illustrator 16.0.0, SVG Export Plug-In . SVG Version: 6.00 Build 0)  -->
<!DOCTYPE svg PUBLIC "-//W3C//DTD SVG 1.1//EN" "http://www.w3.org/Graphics/SVG/1.1/DTD/svg11.dtd">
<svg version="1.1" id="&#x30EC;&#x30A4;&#x30E4;&#x30FC;_1"
	 xmlns="http://www.w3.org/2000/svg" xmlns:xlink="http://www.w3.org/1999/xlink" x="0px" y="0px" width="200px" height="100px"
	 viewBox="0 0 200 100" style="enable-background:new 0 0 200 100;" xml:space="preserve">
<path style="fill:#FFFFFF;" d="M43.061,38.042l-6.202,6.201L24.9,32.284L12.941,44.243l-6.2-6.201L24.9,19.882L43.061,38.042z
	 M66.979,61.959L48.818,80.118l-18.16-18.159l6.201-6.201l11.959,11.958l11.959-11.958L66.979,61.959z"/>
<path style="fill:#FFFFFF;" d="M66.979,38.042L48.818,56.201L42.617,50l11.959-11.958L42.617,26.083l6.201-6.201L66.979,38.042z
	 M31.102,73.917L24.9,80.118L6.741,61.959L24.9,43.799L31.102,50L19.143,61.959L31.102,73.917z M90.656,29.595l8.445,17.885h-3.955
	l-5.102-10.868L84.507,47.48h-4.005l9.108-17.885L90.656,29.595L90.656,29.595z M112.15,39.902
	c-0.588-0.153-1.685-0.434-2.705-1.123c-1.428-0.943-2.219-2.321-2.295-4.03c-0.078-1.429,0.383-2.68,1.301-3.648
	c1.326-1.378,3.24-1.761,4.158-1.761c2.603,0,4.057,0.944,5.356,1.786l0.589,0.383l-1.863,3.036l-0.639-0.408
	c-1.146-0.74-1.888-1.225-3.443-1.225c-0.229,0-1.123,0.179-1.582,0.663c-0.152,0.153-0.332,0.434-0.307,1.021
	c0.025,0.918,0.663,1.429,2.297,1.837c0.203,0.051,0.356,0.102,0.51,0.153c1.709,0.587,3.037,1.377,3.955,2.372
	c0.918,1.021,1.402,2.22,1.402,3.495c0,1.251-0.535,2.552-1.429,3.547c-1.04,1.177-2.537,1.847-4.106,1.837
	c-0.791,0-1.863-0.051-3.14-0.434c-1.606-0.511-3.035-1.403-4.26-2.705l2.602-2.449c1.89,2.016,4.007,2.016,4.798,2.016
	c1.479,0,1.965-1.352,1.965-1.812c0-0.969-1.099-1.862-2.961-2.5l-0.076-0.025L112.15,39.902L112.15,39.902z M135.564,29.595
	l8.443,17.885h-3.953l-5.104-10.868l-5.536,10.868h-4.006l9.108-17.885L135.564,29.595L135.564,29.595z M165.294,47.479
	l-10.052-10.435v10.435h-3.572V29.595h1.123l9.873,10.001V29.595h3.57V47.48L165.294,47.479L165.294,47.479z M193.258,38.524
	c0,5.103-4.158,9.262-9.262,9.262s-9.262-4.159-9.262-9.262s4.158-9.261,9.262-9.261S193.258,33.422,193.258,38.524z
	 M178.409,38.524c0,3.087,2.5,5.588,5.587,5.588s5.588-2.501,5.588-5.588s-2.501-5.587-5.588-5.587S178.409,35.438,178.409,38.524z
	 M90.564,64.55l-0.92,0.937v4.509h-2.381v-11.91h2.381v3.847l3.487-3.847h3.216l-4.168,4.662l4.271,7.248h-2.842L90.564,64.55z
	 M112.176,58.084l5.633,11.927h-2.638l-3.403-7.247l-3.691,7.247h-2.67l6.072-11.927H112.176z M134.025,58.084v7.997h-0.019v0.017
	c0,2.161-1.752,3.913-3.896,3.913c-2.162,0-3.913-1.751-3.913-3.913l0,0v-0.017h2.382v0.017c0,0.408,0.152,0.782,0.441,1.072
	c0.289,0.289,0.681,0.459,1.09,0.459c0.408,0,0.781-0.17,1.07-0.459c0.289-0.29,0.443-0.664,0.443-1.072v-0.017h0.051v-5.836h-2.519
	l0.052-2.161H134.025L134.025,58.084z M145.734,69.994v-11.91h2.383v11.91H145.734z M168.852,58.084l-3.879,7.555v4.372h-2.382
	v-4.372l-3.896-7.555h2.637l2.45,4.492l2.434-4.492H168.852z M183.023,58.084l5.631,11.927h-2.637l-3.401-7.247l-3.692,7.247h-2.671
	l6.073-11.927H183.023z"/>
</svg>
