<?xml version="1.0" encoding="iso-8859-1"?>
<!-- Generator: Adobe Illustrator 16.0.0, SVG Export Plug-In . SVG Version: 6.00 Build 0)  -->
<!DOCTYPE svg PUBLIC "-//W3C//DTD SVG 1.1//EN" "http://www.w3.org/Graphics/SVG/1.1/DTD/svg11.dtd">
<svg version="1.1" id="&#x30EC;&#x30A4;&#x30E4;&#x30FC;_1"
	 xmlns="http://www.w3.org/2000/svg" xmlns:xlink="http://www.w3.org/1999/xlink" x="0px" y="0px" width="200px" height="200px"
	 viewBox="0 0 200 200" style="enable-background:new 0 0 200 200;" xml:space="preserve">
<g>
	<polygon style="fill:#FFFFFF;" points="106.715,63.771 95.69,74.795 74.43,53.536 53.17,74.795 42.146,63.771 74.431,31.487 	"/>
	<polygon style="fill:#FFFFFF;" points="149.234,106.291 116.95,138.575 84.666,106.291 95.69,95.267 116.95,116.526 138.21,95.267 
			"/>
	<polygon style="fill:#FFFFFF;" points="149.234,63.771 116.95,96.055 105.926,85.031 127.186,63.771 105.926,42.512 116.95,31.487 
			"/>
	<polygon style="fill:#FFFFFF;" points="85.455,127.551 74.431,138.574 42.146,106.291 74.431,74.007 85.455,85.031 64.195,106.291 
			"/>
</g>
<g>
	<path style="fill:#FFFFFF;" d="M27.757,155.624l5.632,11.926h-2.637l-3.403-7.247l-3.691,7.247h-2.671l6.074-11.926H27.757z"/>
	<path style="fill:#FFFFFF;" d="M41.286,162.497c-0.391-0.103-1.123-0.289-1.803-0.749c-0.953-0.629-1.48-1.548-1.531-2.688
		c-0.051-0.953,0.255-1.787,0.867-2.434c0.885-0.918,2.161-1.174,2.773-1.174c1.735,0,2.705,0.63,3.572,1.191l0.392,0.255
		l-1.242,2.024l-0.425-0.271c-0.766-0.494-1.259-0.817-2.297-0.817c-0.153,0-0.749,0.119-1.055,0.442
		c-0.103,0.103-0.221,0.29-0.204,0.681c0.017,0.612,0.442,0.953,1.531,1.226c0.136,0.033,0.237,0.067,0.34,0.102
		c1.14,0.392,2.024,0.919,2.637,1.582c0.613,0.681,0.936,1.48,0.936,2.331c0,0.834-0.357,1.701-0.953,2.365
		c-0.698,0.782-1.667,1.225-2.74,1.225c-0.527,0-1.242-0.034-2.092-0.289c-1.072-0.34-2.025-0.936-2.841-1.804l1.735-1.633
		c1.259,1.344,2.671,1.344,3.198,1.344c0.987,0,1.311-0.901,1.311-1.208c0-0.646-0.732-1.242-1.974-1.667l-0.051-0.018
		L41.286,162.497z"/>
	<path style="fill:#FFFFFF;" d="M56.099,155.624l5.632,11.926h-2.637l-3.403-7.247l-3.692,7.247h-2.671l6.074-11.926H56.099z"/>
	<path style="fill:#FFFFFF;" d="M75.118,167.55l-6.703-6.958v6.958h-2.382v-11.926h0.749l6.583,6.669v-6.669h2.383v11.926H75.118z"
		/>
	<path style="fill:#FFFFFF;" d="M92.956,161.578c0,3.403-2.774,6.176-6.176,6.176c-3.403,0-6.176-2.772-6.176-6.176
		c0-3.402,2.773-6.176,6.176-6.176C90.182,155.402,92.956,158.176,92.956,161.578z M83.054,161.578c0,2.059,1.667,3.727,3.726,3.727
		s3.726-1.668,3.726-3.727s-1.667-3.726-3.726-3.726S83.054,159.52,83.054,161.578z"/>
	<path style="fill:#FFFFFF;" d="M108.497,162.089l-0.919,0.936v4.509h-2.382v-11.909h2.382v3.845l3.488-3.845h3.215l-4.168,4.661
		l4.271,7.248h-2.841L108.497,162.089z"/>
	<path style="fill:#FFFFFF;" d="M125.166,155.624l5.632,11.926h-2.637l-3.403-7.247l-3.691,7.247h-2.671l6.073-11.926H125.166z"/>
	<path style="fill:#FFFFFF;" d="M142.03,155.624v7.996h-0.017v0.017c0,2.161-1.753,3.913-3.896,3.913
		c-2.161,0-3.913-1.752-3.913-3.913v-0.017h2.382v0.017c0,0.408,0.153,0.783,0.442,1.072s0.681,0.459,1.089,0.459
		s0.782-0.17,1.072-0.459c0.289-0.289,0.442-0.664,0.442-1.072v-0.017h0.051v-5.836h-2.519l0.052-2.16H142.03z"/>
	<path style="fill:#FFFFFF;" d="M147.765,167.533v-11.909h2.382v11.909H147.765z"/>
	<path style="fill:#FFFFFF;" d="M164.633,155.624l-3.879,7.554v4.372h-2.382v-4.372l-3.896-7.554h2.638l2.449,4.491l2.434-4.491
		H164.633z"/>
	<path style="fill:#FFFFFF;" d="M173.271,155.624l5.632,11.926h-2.637l-3.403-7.247l-3.691,7.247h-2.671l6.073-11.926H173.271z"/>
</g>
</svg>
