<?xml version="1.0" encoding="utf-8"?>
<!-- Generator: Adobe Illustrator 21.0.2, SVG Export Plug-In . SVG Version: 6.00 Build 0)  -->
<svg version="1.1" id="レイヤー_1" xmlns="http://www.w3.org/2000/svg" xmlns:xlink="http://www.w3.org/1999/xlink" x="0px"
	 y="0px" viewBox="0 0 200 100" style="enable-background:new 0 0 200 100;" xml:space="preserve">
<style type="text/css">
	.st0{fill:#FFFFFF;}
</style>
<g>
	<path class="st0" d="M57.5,79.7l3.5,7.3h-1.6l-2.1-4.5L55,87h-1.6l3.7-7.3H57.5z"/>
	<path class="st0" d="M65.8,83.9c-0.2-0.1-0.7-0.2-1.1-0.5c-0.6-0.4-0.9-1-0.9-1.7c0-0.6,0.2-1.1,0.5-1.5c0.5-0.6,1.3-0.7,1.7-0.7
		c1.1,0,1.7,0.4,2.2,0.7l0.2,0.2l-0.8,1.2l-0.3-0.2C66.9,81.2,66.6,81,66,81c-0.1,0-0.5,0.1-0.6,0.3c-0.1,0.1-0.1,0.2-0.1,0.4
		c0,0.4,0.3,0.6,0.9,0.8c0.1,0,0.1,0,0.2,0.1c0.7,0.2,1.2,0.6,1.6,1c0.4,0.4,0.6,0.9,0.6,1.4c0,0.5-0.2,1-0.6,1.5
		c-0.4,0.5-1,0.8-1.7,0.8c-0.3,0-0.8,0-1.3-0.2c-0.7-0.2-1.2-0.6-1.7-1.1l1.1-1c0.8,0.8,1.6,0.8,2,0.8c0.6,0,0.8-0.6,0.8-0.7
		C67.1,84.5,66.6,84.2,65.8,83.9L65.8,83.9L65.8,83.9z"/>
	<path class="st0" d="M74.9,79.7l3.5,7.3h-1.6l-2.1-4.5L72.4,87h-1.6l3.7-7.3H74.9z"/>
	<path class="st0" d="M86.6,87l-4.1-4.3V87H81v-7.3h0.5l4,4.1v-4.1H87V87H86.6z"/>
	<path class="st0" d="M97.5,83.3c0,2.1-1.7,3.8-3.8,3.8c-2.1,0-3.8-1.7-3.8-3.8c0-2.1,1.7-3.8,3.8-3.8
		C95.8,79.5,97.5,81.2,97.5,83.3z M91.4,83.3c0,1.3,1,2.3,2.3,2.3c1.3,0,2.3-1,2.3-2.3S95,81,93.7,81C92.5,81,91.4,82.1,91.4,83.3z"
		/>
	<path class="st0" d="M107.1,83.6l-0.6,0.6V87H105v-7.3h1.5V82l2.1-2.4h2l-2.6,2.9l2.6,4.5h-1.7L107.1,83.6z"/>
	<path class="st0" d="M117.3,79.7l3.5,7.3h-1.6l-2.1-4.5l-2.3,4.5h-1.6l3.7-7.3H117.3z"/>
	<path class="st0" d="M127.7,79.7v4.9h0v0c0,1.3-1.1,2.4-2.4,2.4c-1.3,0-2.4-1.1-2.4-2.4v0h1.5v0c0,0.3,0.1,0.5,0.3,0.7
		c0.2,0.2,0.4,0.3,0.7,0.3c0.3,0,0.5-0.1,0.7-0.3s0.3-0.4,0.3-0.7v0h0V81h-1.5l0-1.3H127.7z"/>
	<path class="st0" d="M131.2,87v-7.3h1.5V87H131.2z"/>
	<path class="st0" d="M141.5,79.7l-2.4,4.6V87h-1.5v-2.7l-2.4-4.6h1.6l1.5,2.8l1.5-2.8H141.5z"/>
	<path class="st0" d="M146.8,79.7l3.5,7.3h-1.6l-2.1-4.5l-2.3,4.5h-1.6l3.7-7.3H146.8z"/>
</g>
<g>
	<path class="st0" d="M22.7,25.8c-0.2,0.3,0,0.4,0.2,0.6c0.4,0.4,0.8,0.8,1.3,1.3c0.3,1.4,1.2,2.7,2.4,3.2c0.1,0,0.2-0.1,0.2-0.1
		c0.3-0.6,1-0.7,1.4-1.3c0.1-0.1,0.3-0.1,0.4-0.2c0.3-0.2,0.6-0.3,0.9-0.5c0.5-0.3,0.5-0.3,0.2-0.9c0-0.1,0-0.2,0-0.3
		c0-0.3,0.1-0.5,0.2-0.8c-0.1-0.1-0.3-0.2-0.5-0.4c0.1-0.2,0.2-0.4,0.5-0.4c0.4,0,0.8,0,1.2-0.1c0.7,0,0.9,0.1,1,0.8
		c0,0.2,0,0.4,0.1,0.6c0,0.1,0.1,0.3,0.2,0.4c0.7,0.4,1.3,0.3,2,0.2c0,0.4,0,0.7,0,1c0.4,0.3,0.8,0.5,1.2,0.7c0,0,0,0,0,0
		c-0.4,0.2-0.5,0.5-0.6,0.8c0.2,0.4,0.4,0.7,0.6,1c0.1,0.1,0.1,0.3,0.2,0.4c0.6,0.6,0.8,1.3,1,2.1c0.2,0.9,0.3,1.8,0.5,2.7
		c0.1,0.7-0.2,1.4-0.6,1.9c-0.2,0.2-0.3,0.3-0.6,0.6c0.3,0.2,0.6,0.5,0.9,0.7c0.3,0.2,0.5,0.3,0.7,0.5c0.4-0.1,0.6-0.3,0.7-0.6
		c0.2-0.4,0.3-0.8,0.4-1.1c0.3-0.9,0.6-1.7,0.9-2.6c0.1-0.2,0.2-0.3,0.2-0.5c0.3-0.6,0.6-1.2,0.9-1.8c0.2-0.4,0.7-0.6,0.7-1.2
		c0.4-0.3,0.5-0.7,0.7-1.1c0.2-0.4,0.5-0.8,0.7-1.2c0.2-0.4,0.4-0.8,0.7-1.1c0,0,0.1,0,0.2,0l0,0c0,0.1,0,0.1,0,0.2
		c-0.3,0.7-0.2,1.4-0.6,2c0,0.1-0.1,0.1,0,0.2c0,0.8-0.3,1.5-0.6,2.2c-0.1,0.4,0,0.6,0.2,0.8l0,0c-0.1,0.3-0.3,0.7-0.4,1.1
		c-0.3,1.4-0.5,2.8-0.2,4.2c0.1,0.5-0.1,1-0.3,1.4c-0.1,0.4-0.3,0.8-0.4,1.1c0.2,0.3,0.3,0.6,0.6,0.8c0.1,0.1,0.2,0.2,0.2,0.3
		c0,0.3,0.2,0.5,0.4,0.6c0.5,0.3,0.7,0.7,0.6,1.2c-0.5,0-0.7,0.4-1.1,0.5c0,0.4-0.3,0.6-0.6,0.8c-0.3,0.2-0.5,0.4-0.9,0.7
		c-0.1-0.1-0.3-0.1-0.5-0.2c-0.2-0.2-0.4-0.4-0.7-0.4c-0.1-0.1-0.1-0.2-0.2-0.3c0,0-0.1,0-0.1,0c0,0,0,0.1,0,0.1
		c0.1,0,0.2,0.1,0.3,0.1c-0.1,0.2-0.1,0.3-0.2,0.5c0.2,0.5,0.5,0.8,1.1,0.6c0.1,0,0.3,0,0.4,0c0.1,0.1,0.3,0.2,0.3,0.3
		c-0.1,0.5,0.2,0.8,0.6,0.9c0.2,0.4-0.2,0.9,0.4,1c-0.3,0.2-0.5,0.4-0.7,0.6c0.1,0.1,0.2,0.2,0.4,0.2C41.3,51.4,41,52,40.2,52
		c-0.1,0-0.2,0.1-0.2,0.3c0.4,0.2,0.7-0.3,1.2-0.3c0,0.1,0,0.3,0,0.3c-0.2,0.1-0.4,0.2-0.5,0.4c-0.3,0.2-0.7,0.4-0.9,0.6
		c-0.2,0.2-0.4,0.2-0.7,0.2c-0.2,0.2,0,0.5-0.3,0.7c-0.3,0.2-0.4,0.4-0.7,0.7c-0.2,0.3-0.4,0.6-0.4,0.9c0.7,0.9,1.3,1.3,3.9,3.1
		c0.8-0.8,2-2.8,2.4-3.9c-0.2-0.2-0.3-0.3-0.5-0.5c0,0,0-0.1,0-0.2c0.1-0.4,0.3-0.8,0.6-1c0.2-0.1,0.4-0.3,0.6-0.4
		c0.2,0.1,0.4,0.1,0.5,0.2c0.2,0.1,0.3,0.1,0.4,0c0.3-0.2,0.6-0.1,0.8,0.2c0.1,0.1,0.2,0.3,0.3,0.4c0.5,0.3,0.6,0.8,0.5,1.4
		c-0.1,0.4-0.1,0.7-0.1,1c-0.6,0.8-1.1,1.5-1.7,2.1c-0.5,0.7-1.1,1.3-1.7,2c0.1,0.1,0.3,0.3,0.4,0.4c0.6,0.3,1.2,0.7,1.9,1
		c0.2-0.2,0.3-0.3,0.4-0.5c1-1.6,1.7-3.4,2.4-5.2c0.2-0.5,0.4-0.9,0.6-1.5c0.1,0.2,0.3,0.3,0.3,0.4c0,0.5,0,1-0.2,1.5
		c-0.3,0.5-0.3,1.1-0.5,1.7c0,0.1,0,0.3,0,0.5c0,0.2,0,0.5-0.1,0.7c-0.1,0.4-0.1,0.7-0.1,1.1c0,0.2,0.1,0.4,0,0.6
		c-0.2,0.8-0.1,1.5,0.2,2.2c0.4,0.1,0.8,0.3,1,0.7c0.2,0.2,0.5,0.4,0.7,0.5c0.2,0.1,0.3,0.3,0.5,0.4c0.5,0.5,0.5,0.5,0.3,1.2
		c0.2,0,0.4,0,0.6-0.1c0.1,0.1,0.2,0.2,0.2,0.3c-0.1,0.2-0.1,0.2-0.7,0.2c-0.3,0.2,0.2,0.5-0.1,0.7c-0.3,0-0.2-0.3-0.3-0.4
		c-0.3,0.1-0.5,0.2-0.8,0.2c0,0.3,0,0.5-0.1,0.8c-0.3-0.1-0.5-0.2-0.7-0.3c0,0.2-0.1,0.4-0.1,0.5c-0.3,0-0.3,0-0.3-0.4
		c-0.2-0.1-0.3,0.2-0.6,0.2c-0.3-0.1-0.7-0.3-1.1-0.4c0,0.2,0,0.4,0,0.6c-0.2,0.2-0.4,0-0.5-0.1c-0.7-0.4-1.3-0.5-2.1-0.4
		c-0.5,0.1-0.9,0-1.4-0.1c-0.3-0.1-0.5-0.4-0.6-0.7c-0.3-0.6-0.5-1.2-0.7-1.7c-0.1-0.3-0.3-0.5-0.5-0.7c-0.5-0.4-0.5-0.4-1,0.1
		c-0.3,0.3-0.6,0.3-0.9,0.4c-0.3,0.3-0.4,0.7-0.8,0.7l0,0c0-0.1,0-0.2,0-0.3c0.1-0.1,0.1-0.2,0.2-0.3c0,0-0.1,0-0.1,0
		c0,0.1,0,0.3,0,0.4c-0.1,0-0.2,0-0.3,0.1c-0.5,0.5-1,1.1-1.6,1.6c-0.2-0.1-0.1-0.2,0-0.3c0.5-0.8,1-1.5,1.4-2.3
		c0.1-0.1,0.3-0.3,0.4-0.4c0-0.1,0-0.1,0-0.2c0,0.1,0,0.1,0,0.2c-0.3-0.3-0.3-0.5-0.1-0.8c0.2-0.2,0.3-0.5,0.4-0.7
		c-0.4-0.6-0.9-1-1.5-1.3c-1.1-0.7-2.2-1.3-3.3-2c-0.2-0.1-0.3-0.2-0.5-0.2c-0.6,0.1-0.9,0.5-1.1,1c-0.3,0.7-0.5,1.3-0.8,2
		c0.1,0.4-0.1,0.7-0.2,1.1c-0.1,0.2,0.1,0.4,0.2,0.6c-0.1,0.2-0.3,0.3-0.4,0.5c-0.2,0-0.4-0.1-0.6-0.1c0.1,0.2,0.1,0.4,0.2,0.5
		c-0.5,0.4-1,0.9-1.6,1.4c-0.2,0-0.4-0.1-0.7-0.2c0-0.1,0.1-0.1,0.1-0.2c0.2-0.1,0.5-0.2,0.8-0.4c-0.5-0.3-0.6-0.3-1-0.1
		c-0.5,0.2-1,0.5-1.5,0.8c-0.4,0.2-0.5,0.2-0.8-0.2c-0.1-0.1-0.1-0.2-0.1-0.2c-0.2-0.2-0.4-0.5-0.7-0.6c-0.4-0.1-0.7-0.4-1.1-0.6
		c0-0.5-0.3-1-0.6-1.5c-0.3-0.5-0.4-1.1-0.5-1.7c0-0.2,0.1-0.3,0-0.5c-0.2-0.5,0.1-0.7,0.6-0.9c0.3,0.2,0.5,0.5,0.8,0.7
		c0.6-0.2,1-0.4,1.1-1.1c0.1,0,0.2,0,0.3,0c0.2,0.1,0.5,0.3,0.7,0.2c0.4-0.1,0.8-0.4,1-0.6c0.3-0.4,0.7-0.6,1-0.9
		c0.5-0.4,0.8-0.9,1.2-1.3c0.2-0.2,0.3-0.4,0.4-0.7c-1-0.8-2-1.6-3-2.4c-0.8-0.7-0.9-0.8-1.3-1.9c0.1-0.2,0.3-0.5,0.4-0.7
		c0.3,0.1,0.5,0.2,0.9,0.3c-0.1-0.4-0.3-0.8,0.1-1.1c0.5,0.2,0.9,0.5,1.4,0.7c0.2,0.1,0.5,0.2,0.7,0.2c0.7,0.1,1.4,0.3,2.1,0.5
		c0.3,0.1,0.7,0.1,1,0.2c0.3,0.1,0.6,0.2,0.9,0.3c0.3-0.2,0.4-0.6,0.6-0.9c0.2-0.3,0.6-0.4,0.9-0.6c0-0.3,0-0.5,0-0.7
		c0-0.4,0.1-0.5,0.6-0.6c0.1,0,0.3-0.1,0.4-0.2c0.3,0.1,0.6,0.3,0.9,0.4c0.2-0.2,0.5-0.3,0.6-0.6c0.1-0.1,0.3-0.4,0.2-0.5
		c-0.1-0.4,0.2-0.6,0.2-0.9c0.4-0.3,0.2-0.6,0.1-0.9c-0.1-0.2-0.2-0.3-0.3-0.5c-0.3-0.3-0.6-0.6-0.9-1c-0.2-0.3-0.5-0.4-0.9-0.5
		c-0.5-0.1-0.9-0.4-1.2-0.8c-0.5-0.7-1.1-1.3-1.9-1.8c-0.1,0-0.1,0-0.2,0c-0.2,0-0.5,0-0.7,0.2c-0.3,0.2-0.6,0.5-0.8,0.8
		c-0.3,0.4-0.7,0.8-1,1.3c-0.5,0.6-0.9,1.2-1.4,1.8c-0.4,0.5-0.8,1.1-1.1,1.6c-0.3,0.5-0.7,0.8-0.8,1.3c-0.1,0.3-0.3,0.5-0.5,0.7
		c-0.2,0.2-0.4,0.3-0.6,0.5c-0.1,0.2-0.1,0.5-0.2,0.6c-0.5,0.6-0.8,1.3-1.2,1.9c-0.6,1-1,2-1.5,3.1c-0.1,0.3-0.2,0.7-0.6,0.8l0,0
		c0-0.1,0-0.3,0-0.4c1.1-3,2.2-6,3.6-8.8l0,0c0.1-0.1,0.1-0.3,0.2-0.4l0,0c0.1-0.2,0.2-0.3,0-0.5c0.4-0.2,0.6-0.5,0.7-1
		c0.1-0.4,0.2-0.7,0.4-1c0.6-1,1.2-2,1.8-3c0.3-0.5,0.5-0.9,0.8-1.4c-0.4-0.5-2.7-2.3-3.7-3c-0.4,0.2-0.8,0.4-1.2,0.7
		c-0.1,0.1-0.2,0.2-0.3,0.3c-0.4,0.5-0.4,0.5-1,0.2c-0.1-0.1-0.2,0-0.4-0.1c0.3-0.3,0.6-0.6,1-0.9c-0.1-0.2-0.2-0.4-0.3-0.6
		c-0.5,0.3-0.9,0.5-1.2,0.9c-0.2,0.3-0.3,0.5-0.1,0.8c0.3,0.1,0.5-0.2,0.7-0.3c0,0.6,0,0.6-0.4,1.1c-0.1,0-0.2,0-0.3,0
		c-0.2,0-0.5,0.1-0.7,0.2c-0.3,0.1-0.2,0.6-0.6,0.5c-0.3,0-0.6,0-0.8,0c0,0-0.1,0-0.1,0.1c0,0.1,0,0.3,0,0.5
		c-0.4,0.2-0.8,0.2-1.2,0.2c-0.6,0.1-1.1,0.1-1.7,0.1c-0.2,0-0.5,0-0.8,0c-0.4,0-0.7-0.2-0.9-0.7c-0.2-0.5-0.5-0.9-0.4-1.5
		c0-0.2-0.1-0.4-0.2-0.5c-0.3-0.2-0.3-0.5-0.3-0.8c0.1-0.7,0.2-1.5,0.3-2.2c0-0.2,0.2-0.5,0.4-0.4c0.4,0.1,0.6-0.2,0.9-0.4
		c0.1-0.1,0.2-0.1,0.3-0.2c0.1,0,0.2,0,0.2,0c0.7,0.5,0.9,0.5,1.6-0.1c0.2-0.2,0.5-0.4,0.8-0.5c0.4-0.2,0.7-0.5,1.2-0.3
		c0.3,0.1,0.6,0.1,0.9,0c0.2,0,0.3-0.1,0.5-0.2c0-0.1,0-0.2,0-0.2c-0.9-1-1.7-2.1-2.6-3.1c-0.2-0.3-0.5-0.4-0.8-0.4
		c-0.1-0.2,0.1-0.6-0.2-0.7c-0.5-0.7-1.1-1.3-1.4-2.1c-0.4-0.9-1-1.8-1.6-2.6c0.3-0.2,0.5-0.4,0.8-0.7c0-0.1-0.1-0.2-0.1-0.3
		c0-0.1,0.1-0.2,0.2-0.2c0.1,0,0.2,0,0.3,0.1c0.4,0.2,0.8,0.2,1.1-0.1c0.2-0.1,0.5-0.2,0.8-0.3c0.4,0.4,0.8,0.7,1.2,1.1
		c0.6,0.6,1.3,1.1,2.1,1.6C22.3,25.4,22.6,25.5,22.7,25.8L22.7,25.8z M32.9,33.1c-1,0.4-1.9,0.8-2.8,1.4c0.6,0.9,1.3,1.6,2.3,2
		C33.2,35.5,33.6,34.4,32.9,33.1z"/>
	<path class="st0" d="M192.3,64.6c-0.2,0.1-0.4,0-0.6-0.1c-0.1,0-0.2-0.1-0.3-0.1c-0.3,0-0.4,0.2-0.4,0.4c0.1,0.2,0.1,0.3,0.2,0.5
		c0.1,0.2,0.2,0.3,0.3,0.6c-0.4-0.2-0.5-0.3-0.7-0.4c-0.2-0.1-0.4-0.1-0.6-0.1c-0.5-0.1-0.9-0.3-1.2-0.9c-0.3-0.5-0.8-0.7-1.3-1
		c-0.2-0.1-0.5-0.1-0.7-0.2c-1.1-0.6-2.3-0.9-3.4-1.3c-0.2-0.1-0.5-0.1-0.7-0.1c-0.8-0.1-1.6-0.1-2.5-0.2c-1.2-0.1-2.4,0.1-3.7,0.4
		c-0.6,0.2-1.2,0.5-1.7,0.8c-0.1,0.1-0.3,0.2-0.3,0.3c-0.1,0.4-0.2,0.6-0.6,0.4c-0.1-0.1-0.3,0.1-0.4,0.1c-0.6,0.4-1.2,0.9-1.9,1.4
		c-0.5-0.2-1.1,0-1.6,0.1c-0.2-0.1-0.4-0.2-0.6-0.4c-0.9-0.5-1.1-0.6-1.6-1.5c-0.3-0.5-0.5-1.1-0.1-1.7c0.1-0.1,0.1-0.2,0.1-0.3
		c0-0.3,0-0.6,0.1-1c0.1,0,0.3-0.1,0.4,0c0.8,0.3,1.6,0,2.3-0.3c1.4-0.6,2.9-1.1,4.4-1.4c0.1-0.2,0-0.4-0.2-0.5
		c-0.5-0.2-1-0.5-1.3-1c-0.1-0.2-0.4-0.2-0.7-0.3c-0.6-0.2-0.7-0.4-0.5-1.1c0.1-0.4,0.3-0.7,0.2-1.2c-0.1-0.3,0-0.6,0.4-0.9
		c0.6,0.2,1.3-0.1,2-0.1c0.6-0.1,1.3-0.2,2-0.3c0-0.4-0.3-0.5-0.6-0.7c-0.2,0.1-0.5,0.2-0.8,0.3c-0.8,0.4-1.6,0.4-2.4,0.2
		c-0.6-0.1-1.1-0.4-1.2-1.1c-0.1-0.2-0.1-0.4,0-0.6c0.1-0.4,0.3-0.8,0.4-1.2c0.1-0.2,0.4-0.7,0.5-0.8c0.1-0.1,0.2-0.2,0.2-0.3
		c0.6-1.2,1.6-2.1,2.4-3.2c0.2-0.3,0.6-0.6,0.8-0.9c0.1-0.1,0.2-0.2,0.3-0.4c-0.6-0.2-1,0.2-1.3,0.5c-0.4,0.2-0.6,0.7-0.9,1.1
		c-0.3,0-0.6,0.1-1,0.1c-0.3-0.4-0.7-0.7-1-1.1c-0.3-0.5-0.6-1.1-1.1-1.4c-0.3-0.2-0.4-0.6-0.4-1c0-0.3,0.1-0.6,0.5-0.6
		c0.3,0,0.3-0.3,0.3-0.5c-0.1-0.3-0.2-0.5,0-0.8c0.2-0.2,0.4-0.2,0.6-0.3c0,0,0-0.1,0-0.1c-0.1,0-0.2-0.1-0.2-0.1
		c-0.6,0.2-1,0.4-1.4,0.9c-0.5,0.6-1,1.2-1.3,1.9c0,0.1,0,0.1-0.1,0.2c-0.6,0.4-0.7,1.1-0.9,1.7c-0.4,1.1-0.8,2.2-1,3.5
		c0.1,0,0.2,0.1,0.2,0.2c0,0.7-0.1,1.3-0.1,2c0,0.3,0.1,0.7-0.2,1c-0.1,0.1-0.1,0.2-0.1,0.3c0,0.7-0.4,1.2-0.6,1.8
		c0,0.1-0.2,0.2-0.2,0.3c-0.1,0.2-0.3,0.4-0.4,0.6c-0.1,0.3-0.2,0.5-0.3,0.8c-0.4,0.7-0.8,1.3-1.1,1.9c0.1,0.2,0.2,0.4,0.2,0.6
		c0,0.2,0,0.3-0.2,0.4c-0.1,0-0.4-0.1-0.4-0.3c0-0.1,0.1-0.2,0.1-0.4c0-0.2,0-0.3-0.3-0.3c-0.1,0.4-0.3,0.7,0,1.1
		c0.1,0.1,0.1,0.2,0.1,0.4c0,0.3,0,0.7,0,1c-0.1,0-0.2,0-0.3,0c0,0.3,0.1,0.5,0.1,0.8c-0.5,0.1-0.6-0.3-0.9-0.4
		c-0.1,0.3,0.1,0.7-0.3,0.8c-0.2-0.2-0.5-0.5-0.7-0.7c-0.2-0.2-0.2-0.4-0.3-0.7c-0.1-0.3-0.1-0.5-0.4-0.7c-0.4-0.3-0.4-0.7-0.3-1.2
		c0.1-0.2,0.2-0.4,0.3-0.6c0.3-0.4,0.4-0.8,0.5-1.3c0.2-0.7,0.4-1.5,0.6-2.2c0-0.1,0-0.2,0.1-0.3c0.8-1.8,1.1-3.7,1.8-5.5
		c0.4,0,0,0.4,0.3,0.5c0.6-0.8,0.8-1.8,1.1-2.8c0-0.1,0-0.3,0-0.4c-0.4-0.1-0.3,0.3-0.7,0.3c0.3-1,0.6-1.9,0.9-2.8
		c0.3-0.9,0.6-1.8,1-2.6c0.2-0.4,0.2-0.8,0.4-1.3c0.2-0.5,0.2-1.1,0.6-1.5c0.1-0.1,0.1-0.3,0.1-0.5c-0.2-0.8,0.1-1.5,0.4-2.2
		c0.1-0.1,0-0.3,0-0.4c0.1,0,0.2,0.1,0.3,0.1c0.3,0.1,0.6,0,0.7-0.2c0.1-0.2,0-0.4-0.3-0.5c-0.1,0.2-0.3,0.4-0.4,0.6
		c0,0-0.2,0-0.2,0.1c-0.3,0.1-0.5-0.1-0.7-0.2c-0.7-0.5-1.4-1-2.2-1.3c-0.6-0.2-0.6-0.3-0.6-1c0-0.1,0-0.1,0-0.2
		c0,0-0.1-0.1-0.1-0.1c-0.9-0.3-0.9-1.1-1-1.8c0-0.2,0-0.5,0-0.8c0.2-0.2,0.4-0.4,0.7-0.7c0.2,0,0.5,0.1,0.7,0.1
		c0.2,0,0.4-0.1,0.6-0.2c0.8-0.3,1.5-0.6,2.3-0.8c0.2-0.1,0.4-0.2,0.4-0.4c0.2,0,0.4,0.1,0.6,0.1c0.5-0.1,0.9-0.2,1.4-0.4
		c1.5-0.4,3.1-0.6,4.6-0.8c0.7-0.1,1.4-0.2,2.1-0.3c0.3,0,0.5-0.2,0.7-0.4c0.7-0.6,1.1-0.6,1.8,0c0.5,0.4,0.9,0.8,1.4,1.1
		c0.3,0.2,0.5,0.5,0.5,0.9c0,0.4,0.3,0.6,0.5,0.8c-0.5,1.1-0.6,2.3-1.3,3.3c-0.1,0.2-0.2,0.5-0.3,0.8c-0.1,0.2-0.2,0.4-0.5,0.5
		c-0.4,0.1-0.5,0.5-0.6,0.8c-0.1,0.3-0.2,0.7-0.6,0.9c0,0-0.1,0.1-0.1,0.2c0.1,0.5-0.3,0.5-0.5,0.7c0,0.2,0.2,0.3,0.3,0.4
		c-0.1,0.3-0.2,0.5-0.3,0.7c0.2,0.4,0.6,0.2,1,0.3c-0.2,0.4-0.6,0.6-0.6,1.1c-0.1,0.4-0.4,0.7-0.6,1.1c-0.8,0.4-1.8,0.5-2.8,0.8
		c-0.8,0.2-1.5,0.3-2.4,0.7c0.9,0.1,1.6-0.4,2.4-0.2c-0.2,0.3-0.5,0.3-0.7,0.3c-0.3,0.1-0.5,0.2-1,0.3c1.1-0.1,2-0.3,2.9-0.6
		c0.5-0.2,1-0.3,1.5-0.5c0.9-0.3,1.5,0.1,2.1,0.7c0.1,0.1,0.2,0.2,0.3,0.4c-0.1,0.5,0,1.1,0.1,1.6c0.1,0.3,0,0.5-0.3,0.7
		c-0.3,0.2-0.6,0.3-0.9,0.5c-0.3,0.3-0.6,0.5-0.8,0.9c-0.2,0.4-0.5,0.8-0.6,1.2c-0.3,0.9-0.7,1.7-1.2,2.4c-0.1,0.1,0,0.2,0,0.3
		c-0.1,0-0.1-0.1-0.2-0.1c0,0-0.1,0-0.1,0.1c0,0,0.1,0,0.1,0c0.1,0,0.1,0,0.2,0c0.4-0.3,0.8-0.5,1.2-0.8c0.5-0.3,0.8-0.8,0.7-1.4
		c0-0.3,0.1-0.5,0.4-0.5c0.2,0,0.5,0,0.6-0.1c0.4-0.2,0.7-0.1,1,0c0.5,0.2,1.1,0.4,1.6,0.6c0.2,0.1,0.5,0.3,0.6,0.4
		c0.6,0.8,1.3,1.4,2,2.1c0.4,0.3,0.6,0.7,0.9,1.1c0.3,0.5,0.6,1,0.8,1.6c-0.3,0.2-0.6,0.5-0.9,0.8c0.2,0.2,0.4,0.5,0.5,0.7
		c-0.1,0.2-0.2,0.1-0.3,0.1c-0.3-0.2-0.5-0.3-0.9-0.1c-0.1,0-0.2,0-0.3,0c-0.5-0.3-1.1-0.6-1.5-1.1c-0.5-0.6-1-1.1-1.6-1.6
		c-0.3-0.3-0.7-0.6-1.1-1c-0.2,0.1-0.3,0.2-0.6,0.3c0.4,0.1,0.5,0.1,0.8,0.1c0,0.1,0.1,0.3,0,0.4c-0.1,0.1-0.2,0.2-0.3,0.3
		c-0.4,0.2-0.8,0.4-1.2,0.7c-0.3,0.2-0.4,0.4-0.3,0.7c0,0.1,0.1,0.3,0,0.3c-0.3,0.3-0.1,0.7,0,1c0.3,0.2,0.6,0.2,0.9,0.1
		c0.6-0.1,1.3-0.3,1.9-0.4c0.2,0,0.4,0,0.6,0c0.3,0,0.4,0.2,0.4,0.5c0,0.1,0,0.3,0,0.4c0.3,0.3,0.2,0.6,0.2,1c0,0.1,0.1,0.2,0.2,0.3
		c-0.2,0.7-0.7,1-1.3,1.2c-0.2,0-0.3,0-0.5,0.1c-0.4,0.1-0.8,0.1-1.1,0.3c-0.3,0.1-0.5,0.4-0.8,0.7c-0.1,0.4,0.1,0.7,0.3,1.1
		c0.5,0.1,1,0.2,1.4,0.1c0.4-0.1,0.7-0.1,1.1,0c0.2,0.1,0.5,0.1,0.7,0.2c0.3-0.1,0.4-0.3,0.5-0.6c0.2-0.5,0.6-0.7,1.2-0.7
		c0.4,0,0.8-0.2,1.2-0.3c0,0.2,0,0.4,0,0.6c0,0.5,0.3,0.7,0.7,0.4c0.3-0.2,0.5-0.3,0.8-0.5c0.3-0.3,0.6-0.4,0.9-0.2
		c0.1,0,0.2-0.1,0.3,0c0,0.1,0,0.2,0,0.3c-0.1,0.2-0.3,0.4-0.2,0.6c0.2,0.2,0.4,0.4,0.6,0.6c0.1,0.1,0.3,0,0.4-0.1
		c0.1-0.1,0-0.3-0.1-0.4c0,0-0.1-0.1-0.1-0.1c0.5-0.6,0.5-0.8,0.4-1.7c0-0.2,0.1-0.4,0.2-0.5c0.2-0.2,0.5-0.2,1-0.2
		c-0.1,0.1-0.2,0.3-0.3,0.4c-0.2,0.2-0.2,0.4-0.3,0.6c-0.1,0.3,0,0.6,0.3,0.9c0.2,0.2,0.5,0.3,0.9,0.1c0.1-0.1,0.2,0,0.4,0
		c0.1,0.6,0.6,0.9,0.6,1.5c0.4,0.4,0.6,1,0.8,1.5c-0.2,0.3-0.5,0.3-0.8,0.3c-0.3-0.1-0.6,0.1-0.8,0.3c0.6,0.6,1.3,1,1.7,1.9
		c-0.2,0-0.3,0-0.4-0.1c-0.5-0.2-0.8-0.5-1.2-0.9c-0.5-0.6-0.5-0.6-1.3-0.9c-0.1,0.1-0.3,0.1-0.4,0.2c0,0.1,0,0.1,0.1,0.2
		c0.2,0.2,0.4,0.5,0.7,0.7c0.5,0.4,0.9,0.9,1.6,1c0.3,0,0.5,0.2,0.6,0.5C192.5,64,192.4,64.3,192.3,64.6L192.3,64.6z M178,28.6
		c-2.4,0.6-4.7,1.2-6.8,2.3c-0.4,0.2-0.7,0.4-1,0.8c0.3,0.1,0.4,0.1,0.7,0.2c-0.3,0.2-0.7,0.4-0.8,0.6c-0.1,0.3-0.1,0.6-0.1,1
		c0.7,0.6,1.4,1.1,2.4,1c0,0.2,0.1,0.3,0.1,0.4c0,0.2,0.1,0.4,0.3,0.5c0.1,0,0.2,0,0.3,0.1c0.1,0.3,0.4,0.3,0.6,0.2
		c0.6-0.1,1.2-0.3,1.8-0.5c0.3-0.1,0.5-0.3,0.7-0.6c0.2-0.4,0.4-0.8,0.6-1.2c0.3-0.6,0.5-1.2,0.6-1.9c0.1-0.7,0.4-1.5,0.5-2.2
		C178,29.2,178,29,178,28.6z M177.5,57.4c-0.4,0.2-1,0.2-1.2,0.7c0,0.1-0.3,0.1-0.4,0.2c-0.1,0-0.2,0.1-0.2,0.3c0.5,0,1.1,0,1.5-0.1
		C177.6,58.2,177.8,57.9,177.5,57.4z M191.2,58.8c0-0.4-0.1-0.6-0.4-0.7c-0.1,0.1-0.2,0.3-0.4,0.4C190.7,58.7,190.9,58.7,191.2,58.8
		z M174.3,49.1C174.3,49.1,174.3,49.1,174.3,49.1c0.1,0,0.1,0,0.1,0C174.4,49.1,174.3,49,174.3,49.1
		C174.3,49.1,174.3,49.1,174.3,49.1z"/>
	<path class="st0" d="M66.2,43c-0.1,0-0.2,0-0.3,0c-0.6-0.5-1.2-0.4-1.9-0.4c-0.7,0-1.4,0.1-2.1,0.3c-0.2,0.4-0.2,0.7-0.2,1.1
		c0.1,0.7,0.2,1.4,0.3,2.2c0.3,0.2,0.7,0,1,0.1c0.3,0.1,0.9,0.6,1,0.9c0,0.1-0.1,0.3-0.1,0.3c-0.3,0.2-0.3,0.4-0.2,0.6
		c0.1,0.3,0.1,0.6,0.2,0.9c-0.5,0.1-1,0-1.4,0.4c0.2,0.2,0.4,0.5,0.5,0.8c0,0.3,0,0.7,0,1c0.3,0.2,0.5,0,0.7-0.1
		c1.1-0.7,2.2-1.3,3.1-2.1c0.2-0.1,0.3-0.4,0.5-0.3c0,0.1,0,0.1,0,0.2c-0.3,0.4-0.7,0.9-1.1,1.3c-0.9,1-1.7,2-2.5,3.1
		c-0.2,0.3-0.4,0.6-0.6,0.7c-0.5,0.2-0.7,0.7-1.1,1c-0.3,0.2-0.5,0.5-0.6,0.9c-0.1,0.2-0.2,0.5-0.4,0.6c-0.5,0.2-0.5,0.5-0.5,0.9
		c-0.5,0.2-1.1,0.2-1.6,0.2c-0.3,0-0.7-0.1-1-0.3c-0.4-0.3-0.8-0.4-1.2-0.5c-0.3-0.1-0.6-0.2-0.7-0.6c0-0.3,0.5-0.5,0.3-0.9
		c0,0,0-0.1,0-0.2c0.6-0.4,0.8-1.2,1.8-1.3c0.7,0,1.4-0.5,2-0.8c0.5-0.9,0.3-1.8,0.5-2.7c-0.2-0.2-0.3,0-0.4,0.1
		c-0.1,0.1-0.1,0.3-0.2,0.5c-0.2,0.1-0.4,0.1-0.6,0.2c-0.4-0.2-0.7-0.4-1-0.7c-0.2-0.3-0.4-0.5-0.7-0.7c-0.1-0.1-0.2-0.3-0.2-0.5
		c0-0.4,0-0.8,0.1-1.1c0.1-0.5,0.2-0.6,0.7-0.6c0.6,0,1.1-0.1,1.5-0.4c0.3-0.2,0.6-0.3,0.9-0.5c0.2-0.6,0.1-1.2,0-1.7
		c0-0.6,0-1.1-0.1-1.7c-0.6,0-1.1,0.2-1.6,0.4c-0.1,0-0.2,0.1-0.4,0.1c-1.1,0.6-2,0.4-3-0.2c-0.1,0-0.1-0.1-0.2-0.1
		c-0.1,0.1-0.2,0.1-0.4,0.2c-0.1,0-0.2,0-0.2-0.1c-0.3-0.4-0.6-0.7-1.2-0.7c-0.5-0.9-0.6-1.8-0.4-2.9c0.2-1.3,0.4-2.7-0.1-4
		c0-0.1,0-0.1,0-0.2C53.1,35,53,34.2,53,33.5c0.2-0.3,0.4-0.6,0.6-1c0.2-0.4,0.6-0.7,1-0.8c0.3-0.1,0.5-0.1,0.7,0.2
		c0.3,0.6,0.8,0.5,1.2,0.3c0.4,0.2,0.5,0.5,0.6,0.8c0.6,0.3,1,0.1,1.5-0.2c0.7-0.5,1.5-1,2.3-1.3c0.6-0.2,1-0.7,1.4-1.1
		c0.1-0.1,0.1-0.3,0.1-0.4c-0.3-0.5,0.1-0.8,0.2-1.1c0.1-0.3,0.4-0.4,0.6-0.5c0.5-0.2,1-0.4,1.6-0.3c0.4,0.1,0.7-0.1,1.1-0.3
		c0.6-0.3,0.6-0.2,1,0.3c0.2,0.3,0.3,0.6,0.3,1c0,0.2,0,0.4,0,0.6c0,0.4,0.1,0.9,0.2,1.3c0.1,0.5,0.1,1,0.2,1.5
		c0.1,0.8,0.2,1.7,0.1,2.5c-0.1,1,0.1,2,0.3,3c0.1,0.4,0.2,0.8,0.2,1.2c0.1,0.4,0.1,0.9-0.1,1.3c-0.1,0.1-0.1,0.3-0.1,0.5
		c0,0.6-0.4,1.1-0.7,1.6c-0.1,0.1-0.2,0.2-0.2,0.2C66.6,42.4,66.5,42.8,66.2,43z M64.1,37.1c-0.5,0.2-1,0.4-1.5,0.6
		c-0.4,0.1-0.5,0.4-0.6,0.7c-0.2,0.7-0.1,1.7,0.3,2.7c1-0.1,1.9-0.2,2.9-0.3c0.1,0,0.1-0.1,0.2-0.1c0-0.1,0-0.1,0-0.2
		c-0.4-1.1-0.7-2.1-1.1-3.2C64.2,37.2,64.2,37.2,64.1,37.1z M60.7,33.1c1-0.1,1-0.1,1.6,0.1c0,0.1,0,0.3-0.1,0.4
		c-0.3,0.3-0.3,0.7-0.2,1.1c0.1,0.2,0,0.5,0.1,0.8c0,0.4,0.1,0.7,0.1,1.2c0.6-0.2,1.3-0.3,1.8-0.8c-0.1-1.4-0.3-2.8-0.4-4.2
		c0-0.1-0.1-0.1-0.2-0.2c-0.1,0-0.2,0.1-0.2,0.1c-0.4,0.5-0.9,0.8-1.4,1C61.4,32.6,61.1,32.9,60.7,33.1z M60.6,36.9
		c0-0.9,0-1.8-0.6-2.5c0-0.3,0.6-0.3,0.4-0.8c-0.1,0-0.1,0-0.2,0c-0.7,0.5-1.4,1-2,1.7c-0.1,0.1-0.2,0.3-0.2,0.5
		c0,0.5,0.1,0.9,0.2,1.4c0.1,0,0.2,0.1,0.3,0.1C59.3,37.3,59.9,37.2,60.6,36.9z M60.8,41.2c-0.1-0.5-0.2-0.9-0.2-1.4
		c-0.1-0.5,0.1-0.9,0-1.4c-0.2,0-0.3,0.1-0.4,0.1c-0.5,0.2-0.9,0.4-0.9,1c0,0.3-0.2,0.6-0.3,0.9c-0.1,0-0.2,0-0.3,0.1
		c-0.1,0-0.2,0.1-0.3,0.1C58.3,41,58.3,41,58,41.4c0,0,0,0.1,0,0.2C58.9,41.8,59.8,41.7,60.8,41.2z M55.7,42.3c0,0-0.1,0.1-0.1,0.1
		c0,0,0,0.1,0.1,0.1C55.7,42.4,55.8,42.4,55.7,42.3C55.8,42.3,55.8,42.3,55.7,42.3z"/>
	<path class="st0" d="M76.4,43.6c1.6-0.1,2.9-0.7,3.9-2c0.3-0.4,0.7-0.7,1.2-0.9c0.2,0.1,0.5,0.2,0.8,0.3c0.4,0.1,0.8,0.3,1.2,0.4
		c0.4,0.1,0.7,0.3,0.9,0.6c-0.1,0.6-0.3,1.1-0.4,1.6c0,0.2,0,0.4,0.1,0.6c0.1,0.3,0.2,0.5,0.3,0.8c0.3,0.5,0.4,1,0.4,1.6
		c0,0.2,0,0.5,0.1,0.9c0,0-0.2,0.1-0.3,0.2c-1,0.6-1.6,1.5-2.2,2.5c-0.1,0.2-0.4,0.4-0.6,0.7c-0.1,0.3,0,0.6,0.1,0.9
		c0.1,0.6,0.2,1.2,0.1,1.9c0,0.3,0,0.6,0,0.8c0.1,1.1,0.2,2.2,0.2,3.3c0,0.4,0.1,0.7,0.4,1c0.3,0.3,0.3,0.8,0.1,1.2
		c-0.6,1.2-0.8,2.5-1.2,3.8c-0.1,0.2-0.2,0.5-0.3,0.7c-0.2-0.1-0.4-0.1-0.7-0.2c-0.2,0.4-0.4,0.7-0.7,1.1c-0.1,0-0.3,0.1-0.4,0
		c-0.2-0.1-0.4-0.4-0.6-0.4c-0.3,0-0.5-0.1-0.7-0.1c-0.5,0-0.6-0.3-0.6-0.7c-0.4-0.3-0.7-0.2-1.1-0.1c-0.9,0.4-1.9,0.5-2.8,0.8
		c-0.1,0-0.3,0.1-0.4,0.1c-0.4-0.1-0.7,0.1-1.1,0.2c-0.2,0.1-0.4,0.1-0.6,0.1c0,0-0.1-0.1-0.1-0.2l0,0c0-0.1,0-0.3,0.1-0.3
		c0.2-0.2,0.4-0.3,0.6-0.4c1.9-1.1,3.8-2.3,5.7-3.4c0.2-0.1,0.4-0.3,0.6-0.4c0.6-0.3,0.8-0.8,0.8-1.4c-0.1-1.2-0.1-2.4-0.2-3.6
		c-0.1-1.2-0.5-2.3-0.6-3.4c0-1.1,0.1-2.1,0.8-3c0.1-0.2,0.4-0.4,0.6-0.5c0.3-0.1,0.5-0.3,0.8-0.4c0.8-0.5,1.1-1.3,1.2-2.1
		c0-0.2,0-0.4-0.1-0.6c-0.3-0.8-0.5-1.6-0.8-2.3c-0.2-0.4-0.5-0.5-0.8-0.3c-0.3,0.2-0.5,0.4-0.8,0.6c-0.6,0.5-1.2,0.8-1.9,1
		c-0.4,0.1-0.8,0.3-1.2,0.5c-0.4,0.2-0.8,0.5-1.1,0.8c-0.3,0.2-0.4,0.5-0.2,0.8c0.2,0.3,0.1,0.7,0,1c-0.2,0-0.4,0-0.5,0.1
		c-0.1,0.1-0.2,0.3-0.3,0.5c-0.2,0-0.4-0.1-0.6-0.2c-0.3,0.2-0.5,0.4-0.8,0.6c-0.4-0.1-0.7-0.4-1-0.7c-0.2-0.3-0.4-0.6-0.7-0.7
		c-0.2-0.1-0.3-0.3-0.4-0.5c-0.2-0.4-0.5-0.7-0.7-1.1c-0.3-0.7-0.4-1.4,0.2-2.1c0.3-0.1,0.6,0.2,0.9-0.1c0.3,0.1,0.7,0.1,1,0.2
		c0.8,0.4,1.6,0.4,2.5,0.2C75.2,44,75.8,44,76.4,43.6L76.4,43.6z"/>
	<path class="st0" d="M97.5,35.2c0.7,0.3,1.3,0.9,2.3,0.8c0.6,0.9,1.5,1.5,2.4,2.2c0.4,0.3,0.8,0.7,0.9,1.2c0,0.2,0.2,0.3,0.3,0.5
		c0.4,0.6,0.4,1.3,0.4,2c0,0.1,0,0.1-0.1,0.2c0,0-0.1,0.1-0.2,0.1c-0.1-0.1-0.3-0.2-0.4-0.3c-0.2-0.2-0.4-0.3-0.8-0.3
		c-0.3,0.1-0.5-0.1-0.7-0.3c-0.4-0.3-0.8-0.7-1.1-1c-0.5-0.5-1.1-0.8-1.8-0.9c-0.3,0.2-0.2,0.5-0.2,0.7c0.1,2-0.3,3.9-1.4,5.6
		c-0.9,1.5-1.8,3-2.6,4.6c-0.6,1.3-1.4,2.4-2.3,3.6c-0.1,0.1-0.2,0.2-0.4,0.3c-0.1-0.1-0.2-0.1-0.3-0.2c-0.4-0.5-1-0.6-1.6-0.8
		c-0.2,0-0.4,0-0.5,0.1c-0.3,0.1-0.7,0.2-1,0.2c-0.3,0-0.5-0.3-0.4-0.5c0.1-0.2,0.2-0.4,0.3-0.6c0.4-0.5,1-1,1.6-1.3
		c0.6-0.3,1.1-0.6,1.7-0.9c0.3-0.2,0.6-0.4,0.8-0.8c0.2-0.4,0.4-0.8,0.6-1.2c0.5-1.2,1-2.4,1.6-3.5c0.6-1.3,0.7-2.7,0.3-4.1
		c-0.2-0.7-0.4-1.4-0.8-2.1c-0.5-1-1-2-1.6-3c-0.3-0.6-0.3-0.6-1.1-0.6c0-0.1-0.1-0.2-0.1-0.2c-0.6-0.9-0.2-1.8,0.2-2.6
		c0.1-0.2,0.3-0.5,0.4-0.7c0.2-0.4,0.6-0.6,1.1-0.6c0.3,0.1,0.6,0.2,0.9,0.3c0.5,0.2,1,0.3,1.5,0.2c0.2,0,0.4,0.1,0.5,0.1
		c0.9,0.3,1.4,1.2,1.4,2.4C97.3,34.2,97.2,34.7,97.5,35.2z"/>
	<path class="st0" d="M156.7,46.5c-0.2,0.1-0.3,0-0.4-0.2c-0.3-0.4-0.5-0.8-0.9-1.1c-0.2-0.2-0.4-0.4-0.5-0.6
		c-0.2-0.3-0.4-0.6-0.7-0.8c-0.4-0.3-0.8-0.8-1.3-1c-0.1,0-0.2-0.2-0.2-0.3c-0.1-0.3-0.3-0.5-0.7-0.7c-0.1,0-0.3,0-0.4,0.1
		c-1.2,0.5-2.5,0.8-3.8,1.2c-1,0.3-2,0.6-3,0.9c-0.6,0.2-1.1,0.6-1.7,0.8c-0.4,0.2-0.8,0.3-1.2,0.3c-0.4,0.1-0.8-0.1-1-0.3
		c-0.3-0.3-0.5-0.6-0.8-0.9c-0.2-0.2-0.2-0.5-0.2-0.7c0.1-0.3,0.2-0.7,0.3-1c0.2-0.4,0.4-0.8,0.5-1.3c0-0.2,0.2-0.4,0.4-0.5
		c0.2-0.2,0.4-0.3,0.5-0.6c0.1-0.3,0.3-0.6,0.4-1c0.4-0.9,0.8-1.9,1.2-2.8c0.2-0.4,0.2-0.7,0.1-1.1c-0.2-0.7,0-1.3,0.6-1.7
		c0.2-0.1,0.4-0.2,0.6-0.2c0.4,0.1,0.8,0,1.2,0c0.3,0.2,0.6,0.5,1.1,0.5c0.3,0,0.6,0.2,1,0.4c0.1,0.2,0.1,0.3,0.2,0.5
		c0.2,0,0.3,0.1,0.5,0.1c0,0.1,0,0.1,0,0.2c-0.1,0.1-0.3,0.2-0.2,0.4c0,0.3,0,0.6-0.2,0.9c-0.1,0.2-0.2,0.3,0,0.5c0,0,0,0.1-0.1,0.2
		c-0.4,0.4-0.8,0.7-1.2,1.1c-0.2,0.2-0.5,0.4-0.8,0.6c-0.3-0.1-0.8-0.2-1.2,0.1c-0.5,0.4-0.9,0.9-1,1.6c0.2,0.2,0.5,0.1,0.8,0.1
		c1,0,2,0.1,3,0.1c0.8,0,1.6-0.2,2.4-0.5c0.1-0.4-0.2-0.7-0.3-1c0.1-0.2,0.1-0.5,0.2-0.7c0-0.1,0.1-0.2,0.1-0.2
		c0.4-0.1,0.6-0.4,0.8-0.6c0.1-0.1,0.4-0.1,0.5-0.1c0.3,0.1,0.5,0.2,0.8,0.4c0.4,0.2,0.8,0.5,1.2,0.7c0.5,0.2,1,0.4,1.2,1
		c0.7,0.4,0.9,1.3,1.6,1.7c0.4,0.2,0.7,0.6,0.5,1.2c0.1,0.2,0.3,0.4,0.4,0.7c-0.6,1.1-0.3,2.2,0,3.3c-0.2-0.1-0.3-0.2-0.5-0.2
		C156.5,46.1,156.6,46.3,156.7,46.5L156.7,46.5z M149.2,40.9c0.8,0,0.9,0,1.6-0.4c-0.1,0-0.1-0.1-0.2-0.1
		C150.2,40.6,149.8,40.8,149.2,40.9z"/>
	<path class="st0" d="M131.4,58.8c-0.8,0-1.5,0-2.5,0c1,0.5,1.8,0.9,2.8,0.9c-0.4,0.4-0.7,0.6-1.1,0.7c-0.5,0.1-1,0.3-1.6,0.3
		c-0.7,0.1-1.3,0.2-1.9,0.5c-0.5,0.2-1,0.4-1.5,0.6c-0.3,0.1-0.6,0.2-0.8,0.5c-0.2-0.1-0.4-0.2-0.6-0.2c-0.5-0.2-0.9-0.4-1.4-0.7
		c-0.2-0.1-0.5-0.3-0.7-0.5c-0.9-0.7-1.7-1.5-2.3-2.5c0-0.1-0.1-0.1-0.2-0.2c-0.1-0.1-0.2-0.2-0.3-0.3c-0.2,0.1-0.5,0.2-0.8,0.3
		c-0.8,0.4-1.6,0.5-2.4,0.4c-0.5,0-1.1-0.1-1.6,0c-1.4,0.2-2.6-0.4-3.6-1.2c-0.1-0.1-0.2-0.2-0.4-0.3c0.1-0.1,0.2-0.3,0.3-0.3
		c0.6-0.3,1.2-0.5,1.8-0.5c1.1,0,2.1,0,3.2-0.4c0.1-0.1,0.3-0.1,0.4-0.2c0.3-0.3,0.1-0.6,0-0.9c-0.1-0.2-0.1-0.4,0.2-0.5
		c0.3-0.1,0.1-0.4,0.2-0.6c0.3-0.3,0.7-0.3,1.1-0.1c0.4,0.2,0.8,0.4,1.2,0.7c0.7-0.9,0.8-2,0.1-3.1c-0.1,0.1-0.2,0.3-0.4,0.4
		c-0.2,0.1-0.3,0.2-0.5,0.2c-0.2,0.1-0.4,0.1-0.5,0.2c-0.2,0.1-0.4,0.1-0.5,0.2c-0.2,0-0.4,0.1-0.6,0.1c-0.9-0.1-1.6-0.4-2.1-1.2
		c-0.1-0.2-0.3-0.4-0.5-0.6c0.1-0.2,0.5-0.3,0.4-0.7c0.2-0.3,0.4-0.6,0.7-0.9c0.2-0.2,0.6-0.1,0.8,0c0.7,0.4,1.4,0.4,2.2,0.3
		c0.8-0.1,1.4,0.1,2,0.5c0.3,0.2,0.6,0.4,0.9,0.7c0.2,0.2,0.3,0.4,0.3,0.7c-0.1,1.1-0.2,2.3-0.3,3.4c0,0.2-0.1,0.5-0.1,0.7
		c0,0.2-0.1,0.4-0.1,0.7c0.7,0.4,1.4,0.7,2.2,1c0.8,0.4,1.7,0.5,2.6,0.6c1.6,0.2,3.2,0.4,4.8,0.6c0.3,0,0.6,0.1,0.9,0.2
		C131.4,58.5,131.4,58.7,131.4,58.8L131.4,58.8z"/>
	<path class="st0" d="M145.6,55.7c-0.4-0.3-0.8-0.6-1.3-1c-0.2,0-0.4,0.1-0.6,0.1c0-0.1-0.1-0.2-0.1-0.3c0-0.3,0.1-0.5,0.2-0.8
		c0.1-0.2,0.1-0.5,0.2-0.7c0.2-0.3,0.2-0.6,0.2-0.9c-0.1-0.5-0.1-0.9-0.1-1.4c-0.1-0.8-0.4-1.6-0.9-2.2c-0.2-0.3-0.4-0.6-0.5-1
		c0-0.1-0.1-0.2,0-0.3c0.4-0.4,0.1-1,0.2-1.5c0.9-0.1,1.6,0.2,2.2,0.7c0.4,0.3,0.7,0.3,1.1,0.2c0.9-0.3,1.8-0.5,2.6-1.1
		c0.2-0.2,0.4-0.3,0.7-0.4c0.4-0.2,0.8-0.5,1-0.9c0.2-0.4,0.5-0.5,0.9-0.2c0.5,0.4,1,0.8,1.7,1.1c0.1,0.1,0.2,0.3,0.3,0.4
		c0.2,0.2,0.3,0.4,0.5,0.6c0,0.4-0.1,0.8-0.1,1.2c0,0.3-0.1,0.4-0.4,0.5c-0.3,0-0.5,0.1-0.6,0.4c-0.3,1.1-0.4,2.3-0.3,3.5
		c0,0.1,0.1,0.1,0.1,0.2c0.4,0.1,0.9,0.2,1.3,0.3c0.3,0.3,0.2,0.7,0.3,1.1c0.1,0.4,0,0.5,0.4,0.8c0,0.1,0,0.3,0,0.4
		c-0.1,0.5-0.3,0.6-0.8,0.6c-0.3,0-0.7-0.1-1-0.2c-0.7-0.1-1.4-0.1-2,0.2c0,0.2,0.1,0.3,0.1,0.5c-0.7,0.1-1.4,0.3-2,0.6
		c-0.2,0.1-0.4,0.2-0.6,0.2c-0.2,0-0.5,0-0.6-0.1c-0.4-0.4-1-0.3-1.4-0.6C146,55.6,145.8,55.7,145.6,55.7z M150.4,52
		c0.1-1.4,0.1-2.7,0-3.9c0,0-0.1-0.1-0.1-0.1c-0.4,0.4-0.9,0.7-1.3,1.1c0,0,0,0.1,0,0.2c0.2,0,0.4,0,0.6,0c-0.8,0.6-1.7,0.7-2.3,1.3
		c0,0.6,0,1.2,0.1,1.8C148.5,52.4,149.4,52.2,150.4,52z"/>
	<path class="st0" d="M76.4,43.6c-0.8,0-1.3-0.5-1.7-1.1c-0.1-0.2-0.2-0.5-0.4-0.6c-0.5-0.6-0.7-1.2-0.7-2c0.1-0.1,0.3-0.3,0.4-0.4
		c0.4-0.4,0.8-0.5,1.3-0.2c0.4,0.2,0.8,0.5,1.1,0.7c0.3,0,0.3-0.3,0.4-0.4c0.3-0.9,0.6-1.9,0.8-2.8c0-0.1,0.1-0.3,0.1-0.4
		c-0.2-1-0.4-2-0.6-2.9c0,0,0,0-0.1-0.1c-0.1,0.1-0.2,0.1-0.3,0.2c-0.9,0.7-0.9,0.7-0.4,1.7c0.1,0.3,0.2,0.5,0.1,0.8
		c-0.1,0.2-0.2,0.3-0.4,0.3c-0.2,0-0.4-0.1-0.5-0.2c-0.1-0.2-0.2-0.5-0.4-0.8c-0.4,0.4-0.4,0.4-0.9,0.5c0,0.2,0,0.4-0.1,0.6
		c-0.2,0.1-0.4,0.2-0.6,0.3c-0.5-0.2-0.9-0.3-1.4-0.5c-0.1-0.1-0.2-0.4-0.4-0.6c-0.3-0.4-0.6-0.8-1.1-1c-0.3-0.2-0.6-0.4-0.7-0.9
		c0.2-0.2,0.4-0.6,0.8-0.6c0.4-0.1,0.7-0.4,1-0.7c0.2-0.2,0.4-0.3,0.7-0.3c1.3-0.3,2.6-0.7,3.8-1c0.4-0.1,0.8-0.3,1.1-0.7
		c0.2-0.3,0.4-0.4,0.7-0.3c0.7,0,1.3,0.1,1.9,0.4c0.4,0.2,0.5,0.4,0.5,0.9c0,0.2,0,0.4-0.1,0.6c-0.1,0.3-0.1,0.6,0,0.8
		c0.2,1.1,0.4,2.1,0.5,3.2c0,0.2,0,0.4,0,0.7c0,0.4-0.1,0.7-0.2,1.2c-0.1,0-0.2,0.1-0.4,0.2c-0.4,0.1-0.8,0.4-1,0.8
		c-0.2,0.3-0.4,0.7-0.8,0.7c-0.5,0.4-1.1,0.7-1.3,1.4c0.1,0.1,0.2,0.3,0.3,0.5c0.1,0.1,0.3,0.2,0.4,0.4c0,0.3-0.1,0.7-0.1,1
		c-0.2,0.3-0.6,0.4-0.6,0.7C76.9,43.4,76.6,43.5,76.4,43.6L76.4,43.6z"/>
	<path class="st0" d="M107.2,54.6c-0.1-0.3-0.2-0.5-0.3-0.8c0.3-0.1,0.5-0.5,0.8-0.5c0.3,0,0.6,0,0.9,0c0.3,0,0.6,0,0.8-0.2
		c-0.1-0.6-0.2-1.2-1-1.4c0.2-0.2,0.2-0.3,0.3-0.3c0-0.4-0.1-0.9-0.1-1.3c0-0.7-0.1-1.3-0.3-2c-0.5-1.5-1-3-1.5-4.5
		c-0.1-0.4-0.2-0.7,0-1c0.3-0.6,0.5-1.2,1.2-1.5c0.7-0.3,1.4-0.7,2-1.2c0.3-0.2,0.5-0.4,0.8-0.7c0.6,0.1,1.1,0.3,1.4,0.8
		c0.2,0.2,0.2,0.4,0.2,0.7c0,0.2,0,0.4,0,0.5c0,0.5-0.2,0.8-0.8,0.9c-0.6,0.1-1.1,0.2-1.7,0.2c-0.5,0-0.9,0.1-1.4,0.3
		c0,1,0.4,1.8,0.7,2.7c0.9,0.2,1.7,0,2.6,0c0.1,0.7-0.3,1.1-0.8,1.5c-0.3,0.3-0.7,0.5-1.1,0.8c0,0.6,0,1.2,0.2,1.9
		c0.2,0,0.4,0,0.5-0.1c0.5-0.1,0.9-0.2,1.4-0.1c0.1,0.7,0,1.2-0.5,1.6c-0.5,0.4-0.5,1-0.7,1.5c0.8,0.2,1.3-0.2,1.7-0.8
		c0.6,0.1,0.9,0.4,1,0.9c0,0.1,0,0.1,0,0.2c-0.1,0.6-0.5,1-1.1,1.2c-0.3,0.1-0.7,0.2-1,0.3c-0.4,0.1-0.6,0.3-0.7,0.8
		c0,0.3-0.1,0.7-0.2,1c0,0-0.1,0.1-0.2,0.2c-0.6-0.4-0.5-1.1-0.9-1.6c-0.6,0.3-1.3-0.1-1.8,0.5c0.2,0.3,0.3,0.6,0.5,0.9
		c-0.1,0.1-0.2,0.2-0.3,0.2c-0.1,0.1-0.2,0.1-0.3,0.2c0,0.2,0,0.4,0,0.5c-0.1,0.5-0.5,0.7-1,0.6c-0.3-0.1-0.5-0.2-0.8-0.2
		c-0.1-0.3-0.2-0.7-0.3-1.1c0-0.2,0-0.5,0-0.7c0-0.3,0.2-0.4,0.4-0.4c0.2-0.1,0.3-0.2,0.3-0.3C106.6,54.6,106.8,54.7,107.2,54.6z"/>
	<path class="st0" d="M100,60.7c0.4-0.3,0.5-0.3,0.3-1c0.1-0.1,0.3-0.2,0.5-0.3c0.9,0.1,1.8,0.4,2.7,0.1c0.1-0.4,0.1-0.7,0-1
		c-0.1-0.3-0.3-0.5-0.6-0.5c-0.1,0-0.2,0-0.3,0c-0.2-0.4-0.3-0.7-0.4-1.1c-0.1-0.3,0-0.7,0-1c0.4-0.2,0.7-0.7,1.3-0.4
		c0.3-0.6,0.2-1.1-0.1-1.5c-0.5-0.1-1,0-1.4,0.1c-0.6,0.1-1.2,0.1-1.7,0.5c-0.2,0.1-0.4,0.1-0.6,0c-0.2-0.1-0.4-0.2-0.6-0.2
		c-0.6,0-1.1-0.4-1.6-0.8c-0.2-0.1-0.3-0.3-0.2-0.6c-0.3-0.3-0.1-0.6,0.2-0.7c0.2-0.6,0.7-0.7,1.3-0.8c0.5-0.1,0.9-0.1,1.4,0.1
		c0.8,0.3,1.7,0.3,2.6,0.3c0.1,0,0.2-0.1,0.3-0.1c-0.1-0.7-0.1-1.4-0.3-2.1c-0.1-0.3-0.1-0.6,0.2-0.8c0.1-0.1,0.2-0.4,0.2-0.6
		c0.8,0,1.4,0.3,2.1,0.7c-0.1,0.7-0.1,1.3-0.7,1.8c-0.3,0.3-0.3,0.5-0.2,1.1c0.6,0.1,1.1,0,1.7-0.1c0.2,0,0.3-0.1,0.5-0.1
		c0.4,0,0.6,0.1,0.6,0.4c0,0.3,0,0.6,0,0.9c-0.6,0.4-1.4,0.4-2,0.7c-0.2,0.3-0.1,0.5-0.1,0.8c0,0.4,0.1,0.8,0,1.1
		c-0.1,0.5-0.1,1,0.1,1.5c-0.2,0.2-0.3,0.4-0.4,0.6c-0.1,0.2,0,0.4-0.1,0.6c0,0.4,0,0.8,0,1.2c0.3,0.3,0.6,0.3,0.9,0.3
		c0.8,0,1.6-0.1,2.4-0.4c0.2-0.1,0.5-0.1,0.7-0.2c0,0,0.1,0,0.2,0.1c0,0.2,0,0.3,0,0.5c0.1,0.6-0.2,0.9-0.7,1.1
		c-0.6,0.2-1.2,0.3-1.8,0.4c-1,0.2-2.1,0.3-3,0.8c-0.2,0.1-0.4,0.2-0.5,0.5c-0.2,0.4-0.4,0.4-0.8,0.3c-0.6-0.2-1.1-0.5-1.4-1.1
		C100.3,61.4,100.2,61.1,100,60.7z"/>
	<path class="st0" d="M117.5,42.4c0.3,0.5,0.2,1,0,1.6c-0.1,0.3-0.2,0.6-0.3,0.9c-0.1,0.1-0.1,0.3-0.2,0.4c-0.6,0.3-0.8,0.9-1.1,1.4
		c0,0.1-0.1,0.1-0.2,0.2c-0.4-0.3-0.7-0.6-1.1-0.7c-0.4-0.1-0.8,0-1.2,0c-0.2-0.2-0.1-0.4,0-0.5c0.4-0.7,1-1.2,1.7-1.6
		c0.5-0.2,0.7-0.6,0.8-1.1c0.2-0.7,0.2-1.4,0-2.1c-0.2-0.5-0.3-1-0.9-1.1c-0.1-0.4,0.3-0.6,0.1-0.9c0.1-0.2,0.3-0.5,0.4-0.7
		c0.5-0.1,0.9-0.1,1.3-0.2c0.1,0,0.3,0,0.4,0c0.6,0.3,1.3,0.3,2,0.2c0.9-0.2,1.6,0.4,2.3,0.7c0.1,0.1,0.3,0.4,0.2,0.5
		c-0.3,0.4,0,0.8,0,1.2c0,0.6,0.1,0.6-0.5,0.7c0,0,0,0-0.1,0.1c-0.1,0.2-0.1,0.4-0.2,0.6c-0.1,0.4-0.2,0.8-0.4,1.2
		c-0.2,0.4-0.3,1-0.4,1.4c0.7,0.8,1.9,1.3,3,1.3c0.2-0.2,0.3-0.5,0.4-0.8c0.1-0.3,0.1-0.5,0.2-0.8c0.2-0.1,0.3,0,0.3,0.2
		c0,0.9,0.4,1.6,0.8,2.4c0.3,0.5,0.3,1,0.3,1.5c0,0.1-0.1,0.2-0.2,0.2c-0.2,0-0.5,0.1-0.8,0c-0.8-0.1-1.7-0.2-2.5-0.4
		c-0.4-0.1-0.8-0.1-1.1-0.1c-1.1,0-1.9-0.9-1.8-2.1c0.1-0.8,0.3-1.7,0.4-2.5c0.1-0.6,0.2-1.2,0.3-1.9c0-0.1,0-0.2,0-0.4
		C118.6,41.4,118.6,41.4,117.5,42.4z"/>
	<path class="st0" d="M134.9,54.6c-0.6,0.2-0.6,0.2-0.9,0.9c-0.1,0-0.1,0-0.2,0c-0.4-0.2-0.7-0.5-1-0.6c-0.4-0.1-0.7-0.3-1.1-0.6
		c-0.3-0.2-0.6-0.2-0.9-0.3c-0.8-0.2-1.4-0.7-1.7-1.5c-0.1-0.2-0.2-0.4-0.3-0.6c0-0.1-0.1-0.3-0.1-0.4c0.3-0.8,0.1-1.6,0.3-2.4
		c0-0.1,0.1-0.1,0.2-0.2c0.1,0,0.2-0.1,0.2,0c0.6,0.3,1.2,0.1,1.7-0.2c0.8-0.5,1.6-1.1,2.3-1.6c1-0.7,2-1.3,3.2-1.7
		c0.1,0,0.2,0,0.4-0.1c-0.2,0.5-0.4,0.8-0.8,1c-0.5,0.3-0.9,0.7-1.4,1c-0.3,0.2-0.4,0.5-0.5,1c0.6-0.3,0.9-0.6,1.3-0.9
		c0.4-0.3,0.8-0.5,1.2-0.8c0.4-0.3,0.8-0.5,1.3-0.8c0.2,0.2,0.1,0.3,0,0.4c-0.1,0.2-0.3,0.3-0.5,0.5c-0.2,0.3-0.5,0.7-0.7,1
		c-0.3,0.4-0.5,0.9-0.7,1.3c-0.3,0.4-0.4,0.8-0.5,1.3c-0.2,0.6-0.5,1.1-0.7,1.7c0.1,0.1,0.2,0.1,0.4,0.2c-0.1,0.1-0.2,0.2-0.3,0.3
		c-0.1,0.4-0.1,0.8-0.3,1.2C134.6,54,134.7,54.3,134.9,54.6z"/>
	<path class="st0" d="M37.6,24.3c-0.2-0.2-0.3-0.3-0.5-0.5c-0.1-0.1-0.2-0.3-0.2-0.4c0.1-0.7-0.3-1.2-0.4-1.8
		c-0.1-0.3-0.1-0.6-0.1-0.8c0-0.2,0.2-0.3,0.3-0.5c0-0.4-0.3-0.7-0.6-1c-0.1-0.8,0.4-1.3,1-1.7c0.4-0.2,0.7-0.4,0.8-0.9
		c0-0.2,0.2-0.3,0.4-0.5c0.2,0.2,0.3,0.3,0.4,0.4c0.7,0.8,1.3,1.5,2,2.3c0.7,0.8,1.3,1.6,1.8,2.6c0.5,1,0.5,2,0.5,3
		c0,0.6-0.2,1.2-0.3,1.7c-0.2,0.2-0.5,0.2-0.6,0.1c-0.2-0.1-0.2-0.4-0.4-0.6c-0.2,0-0.3,0-0.5,0c-0.1,0-0.2,0-0.4,0
		c-0.1,0.2-0.1,0.3-0.1,0.5c-0.1,0-0.1,0-0.2,0c-0.3-0.2-0.6-0.4-0.9-0.6c-0.1,0-0.3,0-0.3,0c-0.1,0.1-0.1,0.2,0,0.3
		c0.1,0.2,0.2,0.4,0.3,0.6c-0.1,0.1-0.1,0.1-0.1,0.1c-0.2,0-0.3,0-0.5-0.1c-0.1-0.1-0.2-0.3-0.3-0.4c-0.2-0.4-0.3-0.8-0.8-0.8
		c-0.1,0-0.2-0.2-0.2-0.3C37.5,24.8,37.5,24.6,37.6,24.3z"/>
	<path class="st0" d="M14.9,53.2c0,0.3,0,0.4-0.1,0.5c-0.4,0.8-0.7,1.6-1,2.4c-0.1,0.4-0.4,0.7-0.6,1.1c-0.3,0.5-0.6,1.1-0.9,1.6
		c-0.1,0.2-0.2,0.4-0.1,0.5c0.2,0.5-0.1,0.9-0.1,1.4c0.3,0.2,0.6,0.5,1,0.8c0,0.1,0,0.3,0,0.5c0,0.1,0.2,0.3,0.3,0.4
		c-0.4,0.5-1,0.8-1.6,1.1c-0.5,0.3-1.4,0-1.7-0.5c-0.1-0.1-0.2-0.3-0.2-0.4c-0.2-0.3-0.3-0.5-0.7-0.6c-0.5-0.2-0.7-0.6-0.8-1.1
		c-0.1-0.4-0.1-0.8-0.2-1.2c0.4-0.4,0.9-0.5,1.2-1c0-0.1,0.2-0.1,0.3-0.1c0.7-0.1,1.3-0.5,1.8-1c1.2-1.2,2.3-2.4,3.1-3.9
		C14.6,53.6,14.7,53.5,14.9,53.2z"/>
	<path class="st0" d="M137.1,38.5c0.5-0.3,0.5-0.3,1-0.1c0.2,0.1,0.3,0.2,0.2,0.4c-0.1,0.2-0.2,0.1-0.3,0c-0.1,0-0.2,0-0.3,0
		c0,0.3,0.4,0.4,0.4,0.7c-0.3,0.2-0.1,0.5,0,0.8c-0.1,0.2-0.3,0.2-0.4,0.2c-0.1,0-0.2,0-0.4,0.1c0.2,0.3,0.4,0.5,0.6,0.8
		c-0.5,0.2-0.7-0.3-1.1-0.3c0,0.2-0.1,0.4-0.2,0.7c-0.2-0.2-0.3-0.3-0.5-0.4c-0.4-0.3-0.6-0.8-1.1-1c-0.2-0.1-0.4-0.4-0.6-0.6
		c-0.3-0.2-0.6-0.5-0.9-0.7c-0.4-0.2-0.6-0.5-0.8-0.9c0.1-0.5,0.2-1,0.4-1.6c0.2-0.4,0.5-0.6,0.8-0.7c0.3-0.1,0.6-0.1,0.8,0.1
		c0.5,0.4,1.1,0.7,1.7,1.1c0.3,0.2,0.5,0.4,0.4,0.8C136.9,38.1,137.1,38.3,137.1,38.5z"/>
	<path class="st0" d="M6.5,28.1C6.7,28,6.9,27.9,7,27.8c0.2-0.1,0.3-0.4,0.5-0.4c0.5-0.2,0.7-0.5,0.8-0.9c0-0.1,0.1-0.1,0.2-0.3
		c0.5,0.3,1,0.5,1.5,0.8c0.2,0.1,0.4,0.2,0.6,0.3c0.3,0.1,0.5,0.2,0.6,0.5c0.1,0.2,0.3,0.3,0.5,0.4c0.7,0.3,1,0.8,0.9,1.5
		c-0.2,0.2-0.4,0.3-0.5,0.5c-0.2,0.5-0.6,0.6-1.1,0.6c-0.1,0.2-0.2,0.4-0.3,0.5c-0.1,0-0.2,0-0.3-0.1c-0.4-0.3-0.8-0.7-1.2-1
		c-0.3-0.2-0.5-0.5-0.9-0.5c-0.1,0-0.2-0.1-0.3-0.1C6.9,29.6,6.6,28.9,6.5,28.1z"/>
	<path class="st0" d="M50.1,50.2c-0.4,1.1-0.6,1.2-1.7,1.1c-0.2,0.2-0.4,0.5-0.6,0.7c-0.5,0-0.9,0-1.4,0c0,0,0,0-0.1,0
		c-0.6-0.4-0.9-1-0.9-1.8c0-0.3-0.2-0.6-0.3-0.9c-0.1-0.2-0.2-0.4-0.3-0.6c0.4-0.5,0.8-1,1.3-1.3c0.2-0.2,0.4-0.2,0.7-0.2
		c0.3,0.1,0.6,0.1,0.8,0.2c0.1,0,0.3,0.1,0.4,0.3c0.5,0.7,1.2,1.1,1.6,1.8C49.9,49.8,50,50,50.1,50.2z"/>
	<path class="st0" d="M3.2,42.3c0.3-0.8,1.1-1,1.6-1.5c0.4,0.2,0.8,0.4,1.1,0.4c0.5,0,0.7,0.4,1.1,0.3c0.3,0.8,0.3,0.8,1.1,1.3
		c0.2,0.6,0.4,1.2,0.6,1.8c-0.3,0-0.6,0-0.8,0.1c-0.2,0.1-0.4,0.3-0.7,0.5c-0.4,0-0.8,0-1.2,0c-0.3-0.2-0.5-0.5-0.7-0.7
		c-0.2-0.3-0.5-0.5-0.8-0.6c-0.4-0.2-0.8-0.5-0.9-1C3.5,42.7,3.3,42.5,3.2,42.3z"/>
	<path class="st0" d="M99.4,47c0.1-0.2,0.2-0.4,0.3-0.6c-0.1-0.1-0.2-0.2-0.3-0.4c0.3-0.5,0.8-0.6,1.3-0.7c0.4,0,0.7-0.3,1-0.5
		c0.4-0.5,0.9-1,1.3-1.5c0.4-0.4,0.8-0.7,1.2-1.1c0.1-0.1,0.3-0.2,0.5-0.2c0.2,0.4,0.1,0.8,0.2,1.2c-1.5,1.3-2.9,2.6-3.7,4.3
		C100.4,47.5,100.4,47.5,99.4,47z"/>
	<path class="st0" d="M189.6,54.5c0.5,0.2,0.5,0.2,0.4,0.8c-0.3,0.1-0.6,0.2-1,0.4c0-0.1,0-0.3,0-0.3
		C189.5,55.2,189.8,55,189.6,54.5z"/>
	<path class="st0" d="M22.7,56.8c0,0.9-0.1,1-0.5,1.5l0,0C22.3,57.9,22.5,57.4,22.7,56.8L22.7,56.8z"/>
	<path class="st0" d="M157.8,42.7c-0.4,0-0.4,0-0.6-0.6C157.5,42.4,157.6,42.6,157.8,42.7z"/>
	<path class="st0" d="M187.5,55.9c-0.1,0.3-0.2,0.4-0.2,0.5c-0.2,0-0.3-0.1-0.3-0.3C187.1,55.9,187.3,56.1,187.5,55.9z"/>
	<path class="st0" d="M77,35.4c-0.1-0.1-0.2-0.2-0.2-0.3c0,0,0.1-0.1,0.1-0.2c0.1,0.1,0.2,0.1,0.2,0.2C77.2,35.2,77.1,35.3,77,35.4z
		"/>
	<path class="st0" d="M192.2,64.6c0.2,0.1,0.3,0.3,0.1,0.5c0,0-0.1,0.1-0.2,0.1c0,0-0.1-0.1-0.1-0.1
		C192.1,64.9,192.2,64.8,192.2,64.6C192.3,64.6,192.2,64.6,192.2,64.6z"/>
	<path class="st0" d="M73,64.6L73,64.6c-0.2,0-0.3,0.1-0.5,0.1l0,0C72.6,64.5,72.8,64.5,73,64.6z"/>
	<path class="st0" d="M131.4,58.8c0.1,0,0.2,0,0.3,0c0,0,0,0,0,0C131.6,58.8,131.5,58.8,131.4,58.8
		C131.4,58.8,131.4,58.8,131.4,58.8z"/>
	<path class="st0" d="M191.3,56c0,0.1,0.1,0.1,0.1,0.2c-0.1,0-0.1,0.1-0.2,0.1c-0.1,0-0.1-0.1-0.1-0.1C191.2,56,191.3,56,191.3,56z"
		/>
	<path class="st0" d="M42.7,34.5c0-0.1,0-0.1,0-0.2C42.7,34.4,42.7,34.5,42.7,34.5L42.7,34.5z"/>
	<path class="st0" d="M43.7,29.1c0-0.1,0-0.2,0-0.2c0,0,0.1,0,0.1,0C43.8,28.9,43.7,29,43.7,29.1L43.7,29.1z"/>
	<path class="st0" d="M23,26.1c-0.1-0.1-0.2-0.2-0.3-0.2c0,0,0,0,0,0C22.8,25.9,22.9,26,23,26.1L23,26.1z"/>
	<path class="st0" d="M23,26.1c0,0,0.1,0,0.1,0C23.1,26,23.1,26,23,26.1C23,26,23,26.1,23,26.1C23,26.1,23,26.1,23,26.1z"/>
	<path class="st0" d="M171.5,65.6C171.5,65.6,171.5,65.7,171.5,65.6c0,0.1,0,0.1-0.1,0.1c0,0,0,0-0.1-0.1
		C171.4,65.7,171.4,65.6,171.5,65.6z"/>
	<path class="st0" d="M72.5,64.7C72.5,64.7,72.5,64.7,72.5,64.7C72.5,64.7,72.5,64.7,72.5,64.7z"/>
	<path class="st0" d="M26.4,47.7c-0.2-0.1-0.1-0.2,0-0.4l0,0C26.3,47.4,26.3,47.5,26.4,47.7L26.4,47.7z"/>
	<path class="st0" d="M26.5,46.8c0,0.2,0,0.3,0,0.5l0,0c-0.1,0-0.1,0-0.2,0l0,0C26.4,47.1,26.5,47,26.5,46.8z"/>
	<path class="st0" d="M164.6,46.8C164.7,46.7,164.7,46.7,164.6,46.8C164.7,46.8,164.7,46.8,164.6,46.8
		C164.7,46.8,164.7,46.8,164.6,46.8C164.6,46.8,164.6,46.8,164.6,46.8z"/>
	<path class="st0" d="M164.4,59.5C164.4,59.5,164.4,59.5,164.4,59.5C164.4,59.4,164.5,59.4,164.4,59.5
		C164.5,59.4,164.5,59.5,164.4,59.5C164.5,59.5,164.4,59.5,164.4,59.5z"/>
	<path class="st0" d="M156.7,46.5c0,0,0,0.1,0,0.1C156.7,46.6,156.7,46.6,156.7,46.5C156.7,46.6,156.7,46.5,156.7,46.5L156.7,46.5z"
		/>
</g>
</svg>
