<?xml version="1.0" encoding="iso-8859-1"?>
<!-- Generator: Adobe Illustrator 16.0.0, SVG Export Plug-In . SVG Version: 6.00 Build 0)  -->
<!DOCTYPE svg PUBLIC "-//W3C//DTD SVG 1.1//EN" "http://www.w3.org/Graphics/SVG/1.1/DTD/svg11.dtd">
<svg version="1.1" id="&#x30EC;&#x30A4;&#x30E4;&#x30FC;_1"
	 xmlns="http://www.w3.org/2000/svg" xmlns:xlink="http://www.w3.org/1999/xlink" x="0px" y="0px" width="200px" height="100px"
	 viewBox="0 0 200 100" style="enable-background:new 0 0 200 100;" xml:space="preserve">
<polygon style="fill:#FFFFFF;stroke:#FFFFFF;stroke-miterlimit:10;" points="43.061,38.042 36.859,44.243 24.9,32.284 
	12.941,44.243 6.741,38.042 24.9,19.882 "/>
<polygon style="fill:#FFFFFF;stroke:#FFFFFF;stroke-miterlimit:10;" points="66.979,61.959 48.818,80.118 30.658,61.959 
	36.859,55.758 48.818,67.716 60.777,55.758 "/>
<polygon style="fill:#FFFFFF;stroke:#FFFFFF;stroke-miterlimit:10;" points="66.979,38.042 48.818,56.201 42.617,50 54.576,38.042 
	42.617,26.083 48.818,19.882 "/>
<polygon style="fill:#FFFFFF;stroke:#FFFFFF;stroke-miterlimit:10;" points="31.102,73.917 24.9,80.118 6.741,61.959 24.9,43.799 
	31.102,50 19.143,61.959 "/>
<path style="fill:#FFFFFF;stroke:#FFFFFF;stroke-miterlimit:10;" d="M90.656,29.595l8.445,17.885h-3.955l-5.102-10.868
	l-5.537,10.868h-4.005l9.108-17.885H90.656z"/>
<path style="fill:#FFFFFF;stroke:#FFFFFF;stroke-miterlimit:10;" d="M112.15,39.902c-0.587-0.153-1.684-0.434-2.704-1.123
	c-1.429-0.943-2.22-2.321-2.296-4.03c-0.077-1.429,0.383-2.68,1.301-3.648c1.326-1.378,3.24-1.761,4.158-1.761
	c2.603,0,4.057,0.944,5.357,1.786l0.588,0.383l-1.863,3.036l-0.638-0.408c-1.147-0.74-1.888-1.225-3.444-1.225
	c-0.229,0-1.122,0.179-1.582,0.663c-0.152,0.153-0.331,0.434-0.306,1.021c0.025,0.918,0.663,1.429,2.296,1.837
	c0.204,0.051,0.357,0.102,0.511,0.153c1.709,0.587,3.036,1.377,3.954,2.372c0.918,1.021,1.403,2.22,1.403,3.495
	c0,1.251-0.536,2.552-1.429,3.547c-1.046,1.173-2.5,1.837-4.107,1.837c-0.791,0-1.862-0.051-3.139-0.434
	c-1.607-0.511-3.035-1.403-4.26-2.705l2.602-2.449c1.889,2.016,4.006,2.016,4.797,2.016c1.479,0,1.965-1.352,1.965-1.812
	c0-0.969-1.098-1.862-2.96-2.5l-0.077-0.025L112.15,39.902z"/>
<path style="fill:#FFFFFF;stroke:#FFFFFF;stroke-miterlimit:10;" d="M135.564,29.595l8.444,17.885h-3.954l-5.103-10.868
	l-5.536,10.868h-4.006l9.108-17.885H135.564z"/>
<path style="fill:#FFFFFF;stroke:#FFFFFF;stroke-miterlimit:10;" d="M165.294,47.479l-10.052-10.435v10.435h-3.572V29.595h1.123
	l9.873,10.001V29.595h3.571v17.885H165.294z"/>
<path style="fill:#FFFFFF;stroke:#FFFFFF;stroke-miterlimit:10;" d="M193.258,38.524c0,5.103-4.159,9.262-9.262,9.262
	s-9.261-4.159-9.261-9.262s4.158-9.261,9.261-9.261S193.258,33.422,193.258,38.524z M178.409,38.524c0,3.087,2.5,5.588,5.587,5.588
	s5.588-2.501,5.588-5.588s-2.501-5.587-5.588-5.587S178.409,35.438,178.409,38.524z"/>
<path style="fill:#FFFFFF;stroke:#FFFFFF;stroke-miterlimit:10;" d="M90.564,64.55l-0.92,0.936v4.509h-2.381v-11.91h2.381v3.846
	l3.487-3.846h3.216l-4.168,4.662l4.271,7.248h-2.842L90.564,64.55z"/>
<path style="fill:#FFFFFF;stroke:#FFFFFF;stroke-miterlimit:10;" d="M112.176,58.084l5.632,11.927h-2.637l-3.403-7.248l-3.692,7.248
	h-2.67l6.073-11.927H112.176z"/>
<path style="fill:#FFFFFF;stroke:#FFFFFF;stroke-miterlimit:10;" d="M134.025,58.084v7.997h-0.018v0.017
	c0,2.161-1.752,3.913-3.896,3.913c-2.161,0-3.913-1.752-3.913-3.913v-0.017h2.382v0.017c0,0.408,0.153,0.782,0.442,1.072
	c0.289,0.289,0.68,0.459,1.089,0.459c0.408,0,0.782-0.17,1.071-0.459c0.289-0.29,0.443-0.664,0.443-1.072v-0.017h0.051v-5.836
	h-2.519l0.052-2.161H134.025z"/>
<path style="fill:#FFFFFF;stroke:#FFFFFF;stroke-miterlimit:10;" d="M145.734,69.994v-11.91h2.383v11.91H145.734z"/>
<path style="fill:#FFFFFF;stroke:#FFFFFF;stroke-miterlimit:10;" d="M168.852,58.084l-3.879,7.555v4.372h-2.382v-4.372l-3.896-7.555
	h2.637l2.45,4.492l2.434-4.492H168.852z"/>
<path style="fill:#FFFFFF;stroke:#FFFFFF;stroke-miterlimit:10;" d="M183.024,58.084l5.631,11.927h-2.637l-3.402-7.248l-3.692,7.248
	h-2.671l6.073-11.927H183.024z"/>
</svg>
