<?xml version="1.0" encoding="iso-8859-1"?>
<!-- Generator: Adobe Illustrator 16.0.0, SVG Export Plug-In . SVG Version: 6.00 Build 0)  -->
<!DOCTYPE svg PUBLIC "-//W3C//DTD SVG 1.1//EN" "http://www.w3.org/Graphics/SVG/1.1/DTD/svg11.dtd">
<svg version="1.1" id="&#x30EC;&#x30A4;&#x30E4;&#x30FC;_1"
	 xmlns="http://www.w3.org/2000/svg" xmlns:xlink="http://www.w3.org/1999/xlink" x="0px" y="0px" width="250px" height="100px"
	 viewBox="0 0 250 100" style="enable-background:new 0 0 250 100;" xml:space="preserve">
<g>
	<path style="fill:#FFFFFF;" d="M30.813,29.638c-0.216,0.313,0.01,0.524,0.19,0.72c0.479,0.518,0.976,1.02,1.573,1.639
		c0.344,1.761,1.519,3.405,2.988,4.025c0.091-0.046,0.241-0.069,0.293-0.153c0.428-0.688,1.27-0.913,1.732-1.565
		c0.102-0.142,0.336-0.187,0.508-0.279c0.381-0.205,0.77-0.396,1.14-0.619c0.606-0.364,0.596-0.375,0.302-1.097
		c-0.052-0.128-0.058-0.292-0.037-0.43c0.053-0.346,0.133-0.686,0.207-1.055c-0.181-0.126-0.371-0.26-0.629-0.441
		c0.154-0.256,0.267-0.492,0.666-0.483c0.509,0.011,1.021-0.035,1.529-0.07c0.886-0.061,1.098,0.108,1.231,1.016
		c0.036,0.234,0.03,0.474,0.088,0.701c0.048,0.187,0.161,0.356,0.236,0.515c0.823,0.476,1.674,0.374,2.495,0.199
		c0.017,0.463,0.03,0.875,0.042,1.22c0.536,0.327,0.998,0.609,1.463,0.891c-0.006,0.013-0.009,0.052-0.028,0.062
		c-0.47,0.232-0.634,0.66-0.709,1.043c0.264,0.466,0.492,0.87,0.722,1.274c0.096,0.17,0.165,0.367,0.296,0.505
		c0.701,0.741,0.975,1.654,1.227,2.62c0.289,1.108,0.405,2.238,0.614,3.354c0.169,0.906-0.232,1.688-0.792,2.38
		c-0.19,0.235-0.427,0.433-0.709,0.715c0.4,0.304,0.731,0.567,1.073,0.813c0.314,0.227,0.642,0.435,0.901,0.61
		c0.504-0.094,0.709-0.396,0.856-0.713c0.215-0.462,0.388-0.947,0.557-1.429c0.379-1.078,0.741-2.161,1.118-3.239
		c0.078-0.222,0.188-0.433,0.291-0.646c0.361-0.744,0.742-1.479,1.082-2.231c0.235-0.518,0.903-0.784,0.838-1.469
		c0.439-0.357,0.652-0.865,0.916-1.344c0.285-0.516,0.624-1.001,0.932-1.506c0.287-0.47,0.562-0.948,0.853-1.416
		c0.028-0.046,0.136-0.042,0.206-0.062l-0.027-0.019c0.013,0.077,0.057,0.168,0.029,0.228c-0.368,0.812-0.254,1.766-0.741,2.544
		c-0.039,0.063-0.065,0.151-0.061,0.225c0.061,1.018-0.388,1.903-0.759,2.8c-0.182,0.439-0.054,0.75,0.24,1.051l0.018-0.01
		c-0.156,0.437-0.356,0.864-0.46,1.312c-0.399,1.729-0.675,3.459-0.26,5.242c0.143,0.607-0.157,1.21-0.383,1.789
		c-0.184,0.471-0.35,0.95-0.51,1.386c0.196,0.428,0.341,0.782,0.693,1.015c0.118,0.076,0.245,0.223,0.267,0.354
		c0.056,0.35,0.255,0.58,0.546,0.72c0.656,0.317,0.833,0.868,0.798,1.537c-0.589-0.042-0.894,0.536-1.411,0.648
		c-0.03,0.522-0.397,0.785-0.78,1.053c-0.343,0.239-0.664,0.512-1.088,0.845c-0.153-0.074-0.397-0.166-0.614-0.305
		c-0.294-0.188-0.54-0.461-0.931-0.441c-0.077-0.109-0.149-0.223-0.24-0.321c-0.016-0.018-0.108,0.028-0.159,0.056
		c-0.009,0.006,0.005,0.094,0.024,0.102c0.132,0.052,0.268,0.09,0.402,0.133c-0.083,0.219-0.164,0.438-0.24,0.639
		c0.279,0.629,0.675,0.99,1.394,0.811c0.144-0.035,0.335-0.033,0.459,0.034c0.155,0.085,0.394,0.278,0.374,0.386
		c-0.117,0.635,0.269,0.938,0.691,1.148c0.227,0.445-0.262,1.068,0.562,1.254c-0.327,0.268-0.588,0.48-0.874,0.713
		c0.18,0.111,0.307,0.191,0.487,0.303c-0.466,0.676-0.879,1.379-1.828,1.459c-0.146,0.014-0.299,0.125-0.215,0.342
		c0.546,0.227,0.89-0.426,1.486-0.324c-0.018,0.141,0.018,0.334-0.06,0.402c-0.204,0.18-0.458,0.303-0.688,0.453
		c-0.395,0.258-0.815,0.484-1.169,0.789c-0.265,0.229-0.538,0.283-0.821,0.232c-0.213,0.295-0.045,0.652-0.362,0.881
		c-0.312,0.227-0.553,0.559-0.816,0.85c-0.294,0.33-0.498,0.703-0.524,1.135c0.903,1.154,1.574,1.68,4.902,3.859
		c1.037-1.018,2.561-3.484,2.957-4.828c-0.197-0.186-0.419-0.396-0.677-0.643c-0.008-0.062-0.049-0.182-0.029-0.291
		c0.092-0.521,0.329-0.953,0.805-1.23c0.269-0.158,0.52-0.344,0.81-0.537c0.223,0.102,0.441,0.182,0.64,0.293
		c0.19,0.109,0.36,0.127,0.547,0.006c0.432-0.281,0.737-0.08,1.004,0.268c0.119,0.154,0.223,0.344,0.379,0.445
		c0.659,0.43,0.776,1.039,0.653,1.756c-0.08,0.463-0.134,0.93-0.184,1.277c-0.735,0.941-1.395,1.818-2.09,2.666
		c-0.673,0.818-1.383,1.609-2.124,2.469C57.3,72.814,57.44,73,57.628,73.105c0.751,0.418,1.518,0.814,2.317,1.238
		c0.189-0.234,0.351-0.398,0.47-0.586c1.28-2.053,2.125-4.305,3.004-6.541c0.229-0.584,0.473-1.162,0.749-1.836
		c0.18,0.238,0.387,0.385,0.389,0.535c0.009,0.623,0.012,1.266-0.279,1.836c-0.346,0.68-0.433,1.424-0.6,2.148
		c-0.042,0.186-0.021,0.385-0.033,0.58c-0.021,0.311,0.016,0.643-0.082,0.928c-0.157,0.467-0.173,0.922-0.12,1.398
		c0.026,0.232,0.078,0.488,0.018,0.705c-0.268,0.941-0.08,1.844,0.188,2.785c0.496,0.162,0.965,0.377,1.308,0.863
		c0.208,0.299,0.624,0.449,0.937,0.68c0.218,0.16,0.436,0.326,0.626,0.518c0.576,0.584,0.571,0.592,0.316,1.484
		c0.239-0.035,0.447-0.064,0.711-0.102c0.094,0.133,0.202,0.283,0.289,0.404c-0.1,0.27-0.1,0.27-0.835,0.25
		c-0.436,0.236,0.2,0.674-0.177,0.922c-0.358,0-0.227-0.361-0.383-0.508c-0.317,0.1-0.635,0.199-0.997,0.312
		c-0.019,0.318-0.04,0.652-0.064,1.057c-0.331-0.143-0.574-0.246-0.848-0.365c-0.056,0.229-0.11,0.445-0.164,0.662
		c-0.415-0.047-0.415-0.047-0.422-0.557c-0.285-0.133-0.393,0.195-0.704,0.252c-0.394-0.156-0.862-0.344-1.39-0.557
		c-0.016,0.266-0.029,0.482-0.042,0.697c-0.264,0.197-0.452-0.018-0.635-0.123c-0.815-0.475-1.669-0.6-2.61-0.492
		c-0.571,0.064-1.175-0.047-1.748-0.158c-0.419-0.084-0.598-0.514-0.759-0.857c-0.336-0.707-0.632-1.438-0.881-2.18
		c-0.123-0.363-0.323-0.607-0.621-0.82c-0.619-0.443-0.681-0.482-1.308,0.062c-0.36,0.314-0.789,0.322-1.159,0.447
		c-0.363,0.32-0.462,0.895-1.051,0.895l0.023,0.021c0.013-0.139,0.023-0.273,0.032-0.414c0.072-0.133,0.147-0.264,0.223-0.393
		c-0.053-0.016-0.107-0.029-0.161-0.043c-0.009,0.154-0.02,0.312-0.029,0.467c-0.105,0.033-0.244,0.035-0.312,0.104
		c-0.654,0.662-1.297,1.334-1.946,2.008c-0.207-0.115-0.07-0.258-0.007-0.363c0.593-0.961,1.188-1.922,1.801-2.871
		c0.118-0.184,0.313-0.318,0.473-0.475c-0.018-0.064-0.033-0.129-0.048-0.191c0.011,0.066,0.021,0.135,0.032,0.199
		c-0.334-0.314-0.395-0.65-0.127-1.049c0.194-0.289,0.352-0.604,0.534-0.922c-0.489-0.738-1.183-1.199-1.884-1.627
		c-1.379-0.842-2.779-1.646-4.174-2.459c-0.202-0.119-0.418-0.213-0.594-0.301c-0.738,0.131-1.088,0.598-1.326,1.215
		c-0.324,0.836-0.688,1.656-1.033,2.484c0.103,0.488-0.143,0.891-0.285,1.33c-0.065,0.207,0.119,0.494,0.207,0.807
		c-0.17,0.197-0.366,0.426-0.562,0.654c-0.239-0.049-0.459-0.092-0.714-0.145c0.099,0.252,0.177,0.453,0.27,0.684
		c-0.655,0.555-1.296,1.098-2.011,1.701c-0.214-0.061-0.507-0.143-0.824-0.23c0.062-0.096,0.081-0.168,0.126-0.191
		c0.304-0.16,0.611-0.311,0.951-0.482c-0.671-0.342-0.74-0.352-1.306-0.078c-0.636,0.309-1.26,0.639-1.898,0.941
		c-0.503,0.24-0.665,0.193-0.98-0.229c-0.069-0.094-0.104-0.213-0.175-0.307c-0.238-0.311-0.484-0.564-0.902-0.697
		c-0.476-0.152-0.893-0.486-1.398-0.775c-0.062-0.676-0.396-1.271-0.791-1.863c-0.409-0.617-0.561-1.363-0.602-2.113
		c-0.011-0.191,0.092-0.406,0.039-0.58c-0.201-0.67,0.177-0.926,0.708-1.137c0.344,0.301,0.663,0.578,1,0.873
		c0.691-0.229,1.228-0.555,1.362-1.326c0.115,0.01,0.234,0.004,0.342,0.037c0.295,0.084,0.639,0.33,0.865,0.248
		c0.462-0.17,0.938-0.445,1.265-0.807c0.4-0.443,0.854-0.783,1.306-1.158c0.565-0.469,1.011-1.086,1.484-1.66
		c0.194-0.234,0.326-0.52,0.507-0.814c-1.294-1.027-2.548-2.023-3.8-3.023c-1.03-0.82-1.145-0.99-1.568-2.322
		c0.151-0.268,0.319-0.568,0.485-0.865c0.36,0.133,0.676,0.25,1.131,0.42c-0.149-0.561-0.431-1.029,0.107-1.404
		c0.573,0.293,1.161,0.605,1.762,0.889c0.279,0.135,0.577,0.262,0.879,0.307c0.899,0.135,1.766,0.373,2.625,0.66
		c0.406,0.139,0.842,0.186,1.259,0.295c0.375,0.096,0.744,0.223,1.16,0.348c0.353-0.264,0.496-0.73,0.783-1.064
		c0.283-0.332,0.785-0.479,1.167-0.691c-0.012-0.344-0.046-0.615-0.026-0.885c0.04-0.535,0.091-0.562,0.709-0.756
		c0.168-0.053,0.315-0.17,0.532-0.289c0.33,0.152,0.72,0.33,1.123,0.518c0.282-0.236,0.576-0.438,0.809-0.693
		c0.147-0.16,0.33-0.438,0.284-0.604c-0.128-0.455,0.251-0.715,0.309-1.085c0.548-0.312,0.285-0.743,0.135-1.126
		c-0.084-0.211-0.265-0.389-0.424-0.564c-0.372-0.406-0.757-0.799-1.138-1.198c-0.308-0.323-0.668-0.551-1.123-0.593
		c-0.683-0.064-1.161-0.443-1.547-0.977c-0.648-0.897-1.429-1.66-2.326-2.284c-0.096,0.013-0.175,0.018-0.25,0.034
		c-0.297,0.062-0.647,0.05-0.877,0.211c-0.381,0.266-0.709,0.623-1.014,0.981c-0.432,0.507-0.824,1.048-1.226,1.581
		c-0.569,0.75-1.145,1.498-1.694,2.264c-0.48,0.671-0.963,1.344-1.384,2.051c-0.336,0.564-0.831,1.021-1.04,1.68
		c-0.101,0.316-0.391,0.584-0.635,0.836c-0.216,0.223-0.541,0.355-0.717,0.6c-0.146,0.201-0.062,0.586-0.222,0.76
		c-0.655,0.711-0.938,1.629-1.449,2.414c-0.779,1.197-1.274,2.523-1.85,3.814c-0.168,0.379-0.192,0.861-0.703,1l0.026,0.021
		c0.018-0.156,0.004-0.322,0.056-0.467c1.383-3.729,2.781-7.453,4.562-11.02l-0.028,0.017c0.081-0.172,0.163-0.343,0.242-0.515
		l-0.025,0.028c0.099-0.214,0.265-0.423,0.017-0.646c0.444-0.285,0.745-0.64,0.847-1.201c0.082-0.449,0.294-0.893,0.52-1.299
		c0.712-1.271,1.457-2.521,2.188-3.781c0.334-0.576,0.666-1.153,0.988-1.708c-0.495-0.606-3.361-2.929-4.656-3.792
		c-0.516,0.283-1.027,0.55-1.523,0.842c-0.155,0.091-0.3,0.229-0.403,0.377c-0.467,0.671-0.505,0.678-1.244,0.259
		c-0.127-0.072-0.303-0.057-0.455-0.081c0.399-0.365,0.799-0.73,1.243-1.137c-0.109-0.231-0.216-0.458-0.338-0.715
		c-0.628,0.315-1.117,0.68-1.536,1.149c-0.296,0.332-0.325,0.676-0.171,1.05c0.417,0.1,0.594-0.211,0.837-0.385
		c0.005,0.75,0.005,0.75-0.511,1.399c-0.117-0.003-0.274-0.035-0.42-0.006c-0.304,0.061-0.604,0.139-0.896,0.238
		c-0.325,0.111-0.259,0.688-0.756,0.63c-0.35-0.041-0.707-0.025-1.061-0.03c-0.032-0.001-0.065,0.038-0.12,0.073
		c-0.006,0.165-0.013,0.345-0.02,0.565c-0.45,0.271-0.975,0.221-1.474,0.266c-0.704,0.063-1.411,0.103-2.117,0.133
		c-0.312,0.014-0.627-0.009-0.939-0.034c-0.554-0.046-0.933-0.308-1.176-0.836c-0.278-0.604-0.6-1.172-0.489-1.884
		c0.03-0.194-0.084-0.491-0.235-0.616c-0.325-0.27-0.374-0.622-0.334-0.958c0.107-0.934,0.269-1.862,0.424-2.791
		c0.048-0.284,0.21-0.602,0.507-0.557c0.535,0.079,0.767-0.294,1.09-0.555c0.12-0.099,0.257-0.178,0.372-0.257
		c0.101,0.018,0.193,0.007,0.248,0.048c0.918,0.669,1.068,0.598,1.946-0.111c0.305-0.247,0.642-0.455,0.967-0.675
		c0.462-0.313,0.906-0.566,1.525-0.33c0.342,0.13,0.77,0.066,1.154,0.038c0.215-0.015,0.422-0.137,0.617-0.206
		c-0.005-0.147,0.022-0.245-0.015-0.291c-1.075-1.305-2.168-2.596-3.232-3.909c-0.267-0.329-0.608-0.46-0.958-0.542
		c-0.185-0.275,0.181-0.691-0.285-0.83c-0.568-0.883-1.332-1.618-1.718-2.646c-0.441-1.173-1.188-2.199-2.042-3.224
		c0.332-0.289,0.617-0.536,0.945-0.821c-0.032-0.09-0.133-0.238-0.114-0.37c0.016-0.116,0.149-0.25,0.265-0.303
		c0.077-0.035,0.218,0.049,0.321,0.096c0.497,0.229,0.944,0.196,1.421-0.115c0.284-0.184,0.666-0.218,1.037-0.328
		c0.5,0.443,1.015,0.867,1.491,1.329c0.797,0.772,1.671,1.428,2.645,1.964c0.311,0.172,0.771,0.227,0.832,0.712L30.813,29.638z
		 M43.605,38.776c-1.206,0.458-2.361,1.019-3.446,1.752c0.726,1.168,1.609,2.044,2.845,2.559
		C43.872,41.71,44.423,40.364,43.605,38.776z"/>
	<path style="fill:#FFFFFF;" d="M242.672,78.107c-0.286,0.15-0.521-0.033-0.771-0.121c-0.138-0.049-0.278-0.117-0.422-0.129
		c-0.338-0.027-0.534,0.197-0.438,0.506c0.068,0.221,0.176,0.43,0.276,0.643c0.094,0.195,0.202,0.387,0.418,0.803
		c-0.443-0.24-0.656-0.395-0.896-0.473c-0.256-0.084-0.542-0.076-0.807-0.143c-0.624-0.158-1.149-0.404-1.461-1.064
		c-0.314-0.672-1.025-0.93-1.675-1.201c-0.288-0.119-0.621-0.15-0.879-0.307c-1.337-0.801-2.868-1.078-4.286-1.654
		c-0.286-0.117-0.614-0.139-0.927-0.164c-1.022-0.082-2.042-0.137-3.064-0.219c-1.55-0.129-3.058,0.096-4.561,0.457
		c-0.786,0.188-1.461,0.57-2.115,1.01c-0.152,0.104-0.321,0.264-0.368,0.43c-0.127,0.438-0.244,0.76-0.802,0.449
		c-0.112-0.062-0.383,0.066-0.532,0.174c-0.77,0.535-1.522,1.09-2.373,1.705c-0.619-0.279-1.318,0.027-2.047,0.172
		c-0.258-0.145-0.521-0.305-0.793-0.445c-1.165-0.607-1.431-0.781-2.035-1.865c-0.354-0.633-0.678-1.35-0.101-2.074
		c0.084-0.107,0.099-0.287,0.112-0.436c0.033-0.385,0.045-0.771,0.07-1.197c0.171-0.021,0.335-0.092,0.467-0.051
		c1.018,0.314,1.958-0.004,2.867-0.377c1.787-0.734,3.603-1.357,5.48-1.771c0.129-0.297-0.045-0.514-0.242-0.6
		c-0.651-0.285-1.237-0.598-1.617-1.262c-0.127-0.223-0.532-0.301-0.823-0.41c-0.793-0.301-0.903-0.518-0.591-1.322
		c0.186-0.475,0.373-0.916,0.248-1.473c-0.079-0.357,0.059-0.783,0.5-1.1c0.795,0.232,1.627-0.07,2.476-0.164
		c0.812-0.09,1.618-0.223,2.443-0.34c-0.023-0.502-0.424-0.598-0.689-0.91c-0.312,0.129-0.645,0.232-0.949,0.393
		c-0.964,0.514-1.979,0.494-2.994,0.271c-0.723-0.156-1.313-0.561-1.541-1.314c-0.075-0.248-0.082-0.549-0.017-0.801
		c0.127-0.49,0.326-0.959,0.495-1.439c0.068-0.191,0.495-0.84,0.661-1.02c0.105-0.113,0.218-0.23,0.291-0.367
		c0.778-1.477,2.052-2.591,2.94-3.99c0.27-0.424,0.687-0.75,1.027-1.131c0.124-0.142,0.213-0.312,0.356-0.523
		c-0.746-0.201-1.208,0.287-1.642,0.572c-0.457,0.301-0.729,0.881-1.1,1.361c-0.385,0.043-0.774,0.088-1.222,0.138
		c-0.415-0.456-0.929-0.863-1.233-1.39c-0.392-0.676-0.706-1.348-1.407-1.797c-0.398-0.254-0.525-0.791-0.519-1.273
		c0.008-0.352,0.115-0.723,0.572-0.776c0.396-0.046,0.415-0.336,0.359-0.604c-0.068-0.336-0.301-0.636-0.055-1.005
		c0.204-0.307,0.556-0.25,0.81-0.414c0.021-0.013,0.014-0.069,0.023-0.144c-0.099-0.024-0.214-0.093-0.303-0.067
		c-0.688,0.202-1.262,0.536-1.744,1.118c-0.629,0.759-1.245,1.507-1.618,2.429c-0.028,0.072-0.062,0.159-0.12,0.202
		c-0.717,0.537-0.849,1.385-1.116,2.152c-0.489,1.404-1.026,2.797-1.205,4.338c0.092,0.061,0.216,0.139,0.303,0.195
		c-0.04,0.836-0.087,1.652-0.117,2.465c-0.017,0.424,0.082,0.861-0.27,1.215c-0.07,0.07-0.085,0.223-0.08,0.336
		c0.035,0.834-0.529,1.467-0.753,2.215c-0.039,0.133-0.225,0.215-0.31,0.34c-0.171,0.256-0.342,0.516-0.476,0.791
		c-0.152,0.314-0.236,0.664-0.405,0.971c-0.458,0.822-0.94,1.633-1.409,2.436c0.121,0.309,0.243,0.551,0.307,0.807
		c0.047,0.199-0.03,0.398-0.251,0.475c-0.173,0.062-0.497-0.172-0.509-0.383c-0.009-0.148,0.073-0.301,0.075-0.453
		c0.005-0.199-0.042-0.389-0.328-0.43c-0.089,0.469-0.413,0.92,0.04,1.391c0.089,0.094,0.087,0.293,0.087,0.445
		c0,0.418-0.023,0.838-0.038,1.256c-0.115,0.014-0.228,0.027-0.37,0.045c0.059,0.314,0.112,0.631,0.176,0.975
		c-0.567,0.121-0.706-0.398-1.138-0.547c-0.171,0.32,0.146,0.869-0.377,1.047c-0.296-0.303-0.587-0.613-0.892-0.908
		c-0.248-0.24-0.276-0.549-0.338-0.861c-0.067-0.336-0.166-0.605-0.536-0.826c-0.53-0.318-0.532-0.922-0.354-1.482
		c0.085-0.258,0.192-0.529,0.358-0.738c0.388-0.479,0.517-1.059,0.681-1.617c0.265-0.906,0.469-1.828,0.703-2.74
		c0.028-0.117,0.062-0.23,0.108-0.34c0.975-2.229,1.374-4.652,2.295-6.898c0.561-0.021,0.045,0.546,0.361,0.658
		c0.76-1.037,0.971-2.297,1.386-3.471c0.063-0.174,0.028-0.381,0.04-0.559c-0.448-0.17-0.438,0.393-0.83,0.417
		c0.321-1.218,0.748-2.354,1.148-3.497c0.395-1.115,0.814-2.223,1.297-3.299c0.23-0.506,0.268-1.05,0.474-1.565
		c0.256-0.631,0.228-1.368,0.728-1.934c0.105-0.121,0.126-0.397,0.072-0.566c-0.307-0.994,0.171-1.827,0.497-2.698
		c0.062-0.168,0.033-0.372,0.047-0.559c0.105,0.044,0.211,0.088,0.316,0.13c0.359,0.139,0.743,0.05,0.856-0.254
		c0.091-0.257,0.047-0.527-0.331-0.635c-0.174,0.232-0.34,0.477-0.537,0.696c-0.056,0.062-0.199,0.045-0.302,0.064
		c-0.345,0.082-0.599-0.081-0.85-0.29c-0.825-0.684-1.747-1.201-2.745-1.596c-0.771-0.307-0.763-0.333-0.736-1.231
		c0.002-0.074-0.033-0.15-0.052-0.226c-0.05-0.059-0.092-0.151-0.152-0.172c-1.119-0.388-1.178-1.351-1.248-2.3
		c-0.023-0.303,0.003-0.611,0.008-1.007c0.243-0.235,0.544-0.531,0.86-0.84c0.3,0.056,0.603,0.163,0.897,0.151
		c0.266-0.01,0.53-0.139,0.788-0.233c0.962-0.352,1.918-0.718,2.885-1.059c0.29-0.103,0.497-0.239,0.487-0.54
		c0.284,0.041,0.544,0.145,0.778,0.099c0.579-0.114,1.145-0.291,1.714-0.453c1.902-0.54,3.853-0.806,5.811-1.049
		c0.858-0.107,1.71-0.271,2.563-0.416c0.356-0.061,0.645-0.234,0.931-0.472c0.884-0.735,1.404-0.726,2.298-0.02
		c0.584,0.46,1.146,0.948,1.737,1.396c0.406,0.306,0.683,0.676,0.671,1.185c-0.012,0.458,0.319,0.689,0.605,1.054
		c-0.624,1.321-0.781,2.844-1.595,4.131c-0.184,0.294-0.284,0.645-0.425,0.967c-0.127,0.289-0.268,0.529-0.621,0.641
		c-0.455,0.145-0.582,0.624-0.75,1.011c-0.186,0.433-0.279,0.904-0.713,1.186c-0.055,0.034-0.11,0.144-0.094,0.198
		c0.178,0.61-0.385,0.678-0.674,0.914c-0.054,0.295,0.195,0.322,0.329,0.438c-0.12,0.315-0.239,0.626-0.356,0.934
		c0.265,0.472,0.755,0.311,1.212,0.419c-0.312,0.453-0.731,0.758-0.812,1.346c-0.063,0.461-0.457,0.878-0.753,1.399
		c-1.053,0.491-2.298,0.68-3.505,0.997c-0.945,0.248-1.916,0.406-3.027,0.883c1.145,0.134,1.986-0.473,2.957-0.303
		c-0.188,0.39-0.579,0.322-0.87,0.424c-0.331,0.115-0.671,0.203-1.245,0.375c1.399-0.08,2.497-0.369,3.573-0.788
		c0.622-0.242,1.262-0.433,1.893-0.658c1.093-0.391,1.901,0.066,2.605,0.854c0.131,0.146,0.241,0.309,0.38,0.485
		c-0.115,0.683-0.062,1.371,0.138,2.055c0.105,0.365,0.028,0.68-0.356,0.885c-0.377,0.199-0.757,0.411-1.078,0.683
		c-0.38,0.323-0.802,0.611-1.021,1.104c-0.223,0.504-0.567,0.96-0.738,1.476c-0.361,1.088-0.894,2.078-1.489,3.044
		c-0.067,0.106-0.009,0.292-0.012,0.435c-0.065-0.043-0.124-0.102-0.192-0.117c-0.035-0.008-0.089,0.056-0.134,0.088
		c0.038-0.003,0.073-0.01,0.11-0.006c0.068,0.008,0.139,0.021,0.209,0.03c0.483-0.323,0.959-0.656,1.451-0.964
		c0.643-0.403,0.945-0.944,0.84-1.721c-0.057-0.389,0.124-0.61,0.459-0.681c0.271-0.056,0.572-0.027,0.812-0.14
		c0.445-0.214,0.84-0.102,1.25,0.06c0.656,0.255,1.327,0.481,1.975,0.766c0.279,0.123,0.576,0.313,0.741,0.558
		c0.693,1.023,1.639,1.788,2.558,2.578c0.457,0.391,0.793,0.838,1.106,1.352c0.39,0.635,0.81,1.234,0.957,2.061
		c-0.35,0.311-0.741,0.656-1.177,1.043c0.223,0.297,0.445,0.6,0.654,0.879c-0.139,0.244-0.27,0.18-0.406,0.086
		c-0.33-0.229-0.663-0.4-1.081-0.184c-0.084,0.043-0.243,0.02-0.333-0.035c-0.668-0.404-1.395-0.719-1.937-1.326
		c-0.626-0.703-1.285-1.385-1.948-2.057c-0.413-0.416-0.863-0.795-1.315-1.211c-0.23,0.127-0.422,0.23-0.795,0.438
		c0.445,0.062,0.685,0.096,0.984,0.139c0.007,0.15,0.063,0.326,0.003,0.439c-0.087,0.16-0.239,0.307-0.401,0.4
		c-0.509,0.297-1.034,0.561-1.548,0.848c-0.356,0.197-0.487,0.48-0.325,0.885c0.054,0.133,0.119,0.354,0.059,0.43
		c-0.353,0.41-0.132,0.812-0.045,1.215c0.363,0.297,0.76,0.188,1.142,0.113c0.81-0.154,1.616-0.34,2.425-0.496
		c0.229-0.043,0.469-0.061,0.699-0.037c0.323,0.033,0.445,0.246,0.44,0.66c0,0.152-0.054,0.363,0.025,0.449
		c0.329,0.357,0.289,0.764,0.271,1.191c-0.005,0.131,0.143,0.27,0.229,0.42c-0.237,0.857-0.892,1.23-1.682,1.441
		c-0.189,0.049-0.389,0.057-0.579,0.104c-0.457,0.115-0.944,0.176-1.355,0.387c-0.36,0.186-0.631,0.543-0.964,0.842
		c-0.077,0.479,0.157,0.895,0.324,1.361c0.581,0.18,1.193,0.264,1.735,0.066c0.497-0.18,0.914-0.121,1.369,0.018
		c0.295,0.092,0.596,0.17,0.837,0.242c0.398-0.139,0.537-0.42,0.676-0.705c0.302-0.621,0.752-0.932,1.498-0.908
		c0.487,0.014,0.98-0.207,1.545-0.34c0.012,0.291,0.026,0.549,0.028,0.805c0.012,0.648,0.356,0.875,0.887,0.559
		c0.335-0.203,0.666-0.422,0.956-0.684c0.353-0.318,0.699-0.463,1.154-0.234c0.117,0.059,0.286-0.15,0.422,0.061
		c-0.014,0.098-0.002,0.227-0.054,0.322c-0.127,0.234-0.411,0.451-0.216,0.734c0.194,0.283,0.445,0.539,0.722,0.736
		c0.115,0.082,0.418,0.039,0.532-0.062c0.169-0.146,0.055-0.355-0.105-0.5c-0.056-0.051-0.11-0.109-0.166-0.166
		c0.581-0.756,0.659-1.008,0.561-2.109c-0.023-0.271,0.072-0.461,0.267-0.604c0.261-0.191,0.641-0.246,1.307-0.229
		c-0.136,0.188-0.226,0.35-0.354,0.469c-0.218,0.205-0.267,0.461-0.316,0.738c-0.07,0.43,0.047,0.805,0.345,1.078
		c0.293,0.27,0.661,0.404,1.074,0.148c0.112-0.07,0.3-0.021,0.518-0.027c0.078,0.715,0.803,1.146,0.699,1.914
		c0.457,0.555,0.736,1.199,0.966,1.891c-0.26,0.314-0.611,0.371-0.944,0.318c-0.437-0.064-0.741,0.1-1.044,0.404
		c0.715,0.699,1.566,1.271,2.115,2.311c-0.256-0.037-0.408-0.025-0.525-0.084c-0.567-0.27-1.053-0.664-1.456-1.139
		c-0.586-0.688-0.574-0.697-1.604-1.158c-0.155,0.082-0.326,0.17-0.495,0.262c0.03,0.084,0.037,0.168,0.082,0.217
		c0.265,0.289,0.519,0.596,0.813,0.854c0.589,0.51,1.143,1.078,1.968,1.219c0.321,0.057,0.574,0.24,0.769,0.611
		c-0.154,0.338-0.33,0.715-0.504,1.094L242.672,78.107z M224.915,33.11c-3.037,0.741-5.881,1.452-8.484,2.897
		c-0.436,0.245-0.893,0.462-1.296,0.94c0.312,0.093,0.534,0.161,0.902,0.271c-0.415,0.306-0.828,0.467-0.98,0.764
		c-0.173,0.336-0.114,0.794-0.154,1.19c0.877,0.756,1.779,1.416,3.06,1.271c0.031,0.216,0.073,0.363,0.07,0.508
		c-0.009,0.311,0.073,0.538,0.418,0.6c0.112,0.02,0.295,0.055,0.316,0.122c0.129,0.422,0.445,0.38,0.745,0.309
		c0.765-0.18,1.522-0.399,2.287-0.574c0.429-0.098,0.67-0.36,0.842-0.743c0.22-0.504,0.462-0.998,0.703-1.494
		c0.363-0.745,0.636-1.517,0.802-2.333c0.188-0.924,0.445-1.832,0.659-2.75C224.863,33.83,224.868,33.558,224.915,33.11z
		 M224.195,69.088c-0.549,0.295-1.218,0.213-1.48,0.9c-0.047,0.127-0.318,0.17-0.487,0.244c-0.132,0.059-0.308,0.07-0.244,0.32
		c0.657-0.023,1.313-0.047,1.911-0.068C224.356,70.104,224.567,69.721,224.195,69.088z M241.343,70.852
		c0.019-0.523-0.15-0.74-0.539-0.848c-0.144,0.172-0.286,0.346-0.465,0.561C240.684,70.664,240.968,70.746,241.343,70.852z
		 M220.228,58.729c0.032,0.01,0.065,0.027,0.096,0.021c0.017,0,0.023-0.043,0.038-0.068c-0.035-0.012-0.068-0.031-0.102-0.027
		C220.248,58.654,220.239,58.703,220.228,58.729z"/>
	<path style="fill:#FFFFFF;" d="M85.201,51.1c-0.163-0.016-0.266,0.006-0.314-0.036c-0.696-0.587-1.524-0.537-2.347-0.48
		c-0.898,0.061-1.793,0.152-2.659,0.377c-0.224,0.451-0.233,0.89-0.191,1.313c0.09,0.896,0.227,1.789,0.351,2.735
		c0.392,0.207,0.838,0.04,1.251,0.115c0.384,0.069,1.141,0.771,1.19,1.174c0.016,0.125-0.074,0.333-0.179,0.388
		c-0.363,0.193-0.358,0.443-0.257,0.79c0.103,0.353,0.13,0.726,0.202,1.163c-0.618,0.062-1.273,0.004-1.791,0.545
		c0.304,0.275,0.556,0.609,0.582,1.035c0.025,0.422-0.006,0.846-0.013,1.223c0.391,0.248,0.614-0.004,0.82-0.135
		c1.335-0.836,2.689-1.643,3.903-2.658c0.194-0.162,0.335-0.449,0.678-0.377c-0.004,0.074,0.02,0.16-0.013,0.201
		c-0.436,0.559-0.837,1.15-1.327,1.656c-1.154,1.195-2.151,2.504-3.07,3.881c-0.215,0.322-0.45,0.727-0.772,0.861
		c-0.614,0.252-0.884,0.846-1.403,1.189c-0.359,0.238-0.666,0.639-0.785,1.143c-0.063,0.271-0.289,0.627-0.527,0.715
		c-0.571,0.219-0.613,0.654-0.602,1.152c-0.677,0.23-1.332,0.293-1.991,0.266c-0.422-0.018-0.843-0.072-1.211-0.35
		c-0.443-0.334-0.943-0.557-1.501-0.658c-0.396-0.07-0.763-0.219-0.917-0.723c0.04-0.35,0.667-0.576,0.367-1.09
		c-0.027-0.047,0.009-0.178,0.059-0.213c0.712-0.553,1.057-1.531,2.207-1.58c0.898-0.039,1.697-0.584,2.507-1.008
		c0.582-1.092,0.414-2.299,0.622-3.418c-0.297-0.189-0.405-0.01-0.496,0.154c-0.094,0.172-0.158,0.357-0.258,0.59
		c-0.228,0.066-0.486,0.143-0.779,0.229c-0.459-0.197-0.898-0.453-1.192-0.891c-0.245-0.363-0.513-0.676-0.906-0.906
		c-0.161-0.094-0.276-0.393-0.278-0.6c-0.005-0.469,0.06-0.941,0.123-1.408c0.083-0.607,0.301-0.808,0.93-0.795
		c0.689,0.014,1.323-0.129,1.924-0.471c0.373-0.211,0.769-0.385,1.127-0.562c0.278-0.753,0.074-1.451,0.03-2.15
		c-0.042-0.7-0.053-1.402-0.079-2.162c-0.746-0.029-1.381,0.312-2.052,0.479c-0.151,0.037-0.306,0.093-0.439,0.172
		c-1.312,0.773-2.549,0.469-3.76-0.25c-0.067-0.041-0.13-0.089-0.209-0.145c-0.154,0.09-0.313,0.182-0.47,0.273
		c-0.078-0.021-0.189-0.018-0.218-0.063c-0.331-0.534-0.747-0.91-1.494-0.812c-0.584-1.153-0.781-2.297-0.562-3.615
		c0.276-1.657,0.467-3.362-0.096-5.026c-0.024-0.073-0.035-0.153-0.041-0.231c-0.079-0.979-0.157-1.958-0.23-2.884
		c0.287-0.428,0.552-0.811,0.803-1.201c0.309-0.479,0.702-0.845,1.252-1.024c0.328-0.105,0.686-0.099,0.852,0.206
		c0.412,0.755,0.977,0.655,1.549,0.351c0.478,0.249,0.601,0.664,0.698,1.048c0.73,0.337,1.312,0.134,1.885-0.299
		c0.881-0.667,1.82-1.24,2.862-1.636c0.727-0.274,1.23-0.842,1.696-1.432c0.103-0.129,0.175-0.405,0.106-0.527
		c-0.326-0.581,0.172-0.962,0.291-1.432c0.104-0.413,0.492-0.526,0.8-0.629c0.622-0.212,1.232-0.514,1.938-0.408
		c0.481,0.072,0.92-0.136,1.358-0.329c0.747-0.328,0.761-0.283,1.223,0.366c0.27,0.376,0.409,0.733,0.322,1.193
		c-0.042,0.228-0.028,0.472-0.006,0.704c0.054,0.545,0.128,1.087,0.193,1.63c0.075,0.626,0.141,1.253,0.232,1.877
		c0.154,1.053,0.274,2.107,0.184,3.175c-0.108,1.273,0.087,2.51,0.428,3.733c0.137,0.492,0.222,0.999,0.301,1.504
		c0.084,0.55,0.075,1.096-0.174,1.619c-0.081,0.172-0.141,0.375-0.14,0.562c0.009,0.811-0.482,1.388-0.902,1.999
		c-0.062,0.093-0.199,0.228-0.264,0.21C85.603,50.332,85.48,50.792,85.201,51.1z M82.499,43.684
		c-0.59,0.225-1.204,0.473-1.828,0.693c-0.457,0.161-0.677,0.474-0.791,0.936c-0.226,0.906-0.114,2.155,0.366,3.333
		c1.201-0.123,2.411-0.245,3.62-0.375c0.067-0.007,0.128-0.078,0.19-0.12c0.011-0.076,0.048-0.16,0.026-0.225
		c-0.453-1.34-0.912-2.678-1.376-4.014C82.684,43.844,82.605,43.796,82.499,43.684z M78.249,38.781
		c1.259-0.133,1.259-0.133,1.961,0.144c-0.027,0.146-0.009,0.34-0.096,0.441c-0.357,0.413-0.325,0.846-0.192,1.33
		c0.081,0.298,0.062,0.624,0.093,0.937c0.046,0.457,0.096,0.913,0.151,1.448c0.805-0.307,1.596-0.411,2.229-1.055
		c-0.16-1.747-0.318-3.51-0.49-5.271c-0.008-0.086-0.132-0.161-0.196-0.234c-0.101,0.05-0.189,0.068-0.235,0.122
		c-0.498,0.574-1.068,1.018-1.806,1.282C79.204,38.091,78.804,38.437,78.249,38.781z M78.165,43.511
		c0.019-1.132,0.04-2.25-0.69-3.168c0.021-0.431,0.794-0.423,0.464-0.972c-0.072-0.007-0.166-0.046-0.214-0.016
		c-0.922,0.597-1.782,1.273-2.516,2.094c-0.139,0.156-0.224,0.433-0.204,0.641c0.055,0.577,0.179,1.146,0.283,1.763
		c0.127,0.047,0.273,0.156,0.408,0.143C76.511,43.917,77.334,43.865,78.165,43.511z M78.429,48.793
		c-0.104-0.565-0.212-1.14-0.311-1.717c-0.098-0.567,0.164-1.152-0.036-1.776c-0.196,0.054-0.345,0.087-0.487,0.136
		c-0.63,0.216-1.095,0.558-1.176,1.301c-0.041,0.371-0.229,0.726-0.354,1.097c-0.114,0.026-0.229,0.044-0.341,0.079
		c-0.11,0.033-0.217,0.083-0.318,0.123c-0.063,0.567-0.065,0.564-0.521,1.043c-0.033,0.036,0.009,0.146,0.017,0.22
		C75.976,49.591,77.113,49.432,78.429,48.793z M72.069,50.196c-0.049,0.047-0.098,0.091-0.141,0.142
		c-0.003,0.003,0.052,0.075,0.064,0.071c0.067-0.023,0.128-0.059,0.191-0.091C72.146,50.277,72.108,50.236,72.069,50.196z"/>
	<path style="fill:#FFFFFF;" d="M97.874,51.863c1.991-0.095,3.65-0.863,4.894-2.441c0.375-0.475,0.816-0.84,1.439-1.149
		c0.312,0.101,0.682,0.214,1.05,0.34c0.482,0.165,0.963,0.335,1.442,0.509c0.448,0.163,0.842,0.409,1.142,0.742
		c-0.188,0.709-0.383,1.372-0.528,2.043c-0.046,0.217,0.005,0.474,0.078,0.689c0.113,0.333,0.28,0.649,0.435,0.967
		c0.313,0.644,0.546,1.297,0.473,2.038c-0.03,0.305,0.048,0.62,0.094,1.118c-0.059,0.041-0.218,0.162-0.387,0.268
		c-1.247,0.759-2.027,1.93-2.796,3.121c-0.185,0.287-0.475,0.506-0.774,0.814c-0.104,0.318,0.061,0.691,0.143,1.068
		c0.166,0.775,0.255,1.553,0.165,2.348c-0.039,0.35-0.047,0.709-0.025,1.059c0.085,1.375,0.188,2.752,0.283,4.125
		c0.033,0.479,0.112,0.92,0.456,1.305c0.381,0.426,0.384,0.988,0.157,1.451c-0.736,1.504-0.994,3.145-1.448,4.729
		c-0.085,0.297-0.222,0.576-0.358,0.924c-0.292-0.074-0.547-0.135-0.852-0.211c-0.266,0.449-0.543,0.914-0.841,1.416
		c-0.142,0.006-0.319,0.064-0.439,0.006c-0.266-0.127-0.523-0.469-0.746-0.439c-0.332,0.045-0.615-0.072-0.919-0.068
		c-0.585,0.004-0.711-0.387-0.727-0.818c-0.454-0.412-0.938-0.311-1.354-0.107c-1.11,0.533-2.362,0.58-3.484,1.061
		c-0.14,0.061-0.322,0.121-0.454,0.08c-0.513-0.162-0.929,0.074-1.338,0.297c-0.267,0.146-0.525,0.154-0.792,0.078
		c-0.062-0.018-0.084-0.174-0.125-0.266l0.002,0.029c0.026-0.139,0.005-0.334,0.089-0.404c0.238-0.201,0.515-0.357,0.783-0.52
		c2.361-1.422,4.725-2.84,7.085-4.264c0.27-0.16,0.518-0.361,0.797-0.506c0.725-0.377,0.977-1.004,0.939-1.766
		c-0.068-1.492-0.135-2.98-0.302-4.473c-0.161-1.451-0.642-2.846-0.694-4.301c-0.049-1.344,0.115-2.676,0.987-3.789
		c0.187-0.238,0.44-0.512,0.709-0.576c0.41-0.096,0.682-0.352,1.013-0.555c1.003-0.609,1.316-1.594,1.507-2.646
		c0.04-0.22-0.001-0.477-0.073-0.695c-0.322-0.971-0.656-1.938-1.014-2.896c-0.188-0.505-0.581-0.627-1.034-0.34
		c-0.331,0.212-0.64,0.459-0.948,0.704c-0.716,0.57-1.506,0.997-2.367,1.309c-0.518,0.186-1.043,0.379-1.517,0.654
		c-0.505,0.293-0.967,0.666-1.419,1.039c-0.331,0.273-0.472,0.666-0.259,1.062c0.23,0.427,0.179,0.827,0.026,1.258
		c-0.208,0.046-0.477,0.039-0.646,0.163c-0.166,0.123-0.23,0.383-0.369,0.637c-0.215-0.061-0.465-0.129-0.74-0.205
		c-0.315,0.24-0.627,0.475-0.956,0.725c-0.559-0.098-0.913-0.461-1.214-0.936c-0.228-0.359-0.487-0.697-0.907-0.902
		c-0.227-0.108-0.396-0.375-0.542-0.6c-0.298-0.461-0.603-0.925-0.836-1.419c-0.424-0.9-0.482-1.794,0.233-2.616
		c0.349-0.168,0.783,0.195,1.111-0.156c0.421,0.08,0.878,0.082,1.255,0.255c1.017,0.468,2.054,0.521,3.117,0.292
		c0.803-0.172,1.649-0.207,2.361-0.691L97.874,51.863z"/>
	<path style="fill:#FFFFFF;" d="M124.215,41.311c0.874,0.414,1.673,1.129,2.837,1.025c0.758,1.166,1.928,1.913,2.968,2.802
		c0.482,0.413,0.951,0.819,1.118,1.479c0.055,0.217,0.248,0.397,0.364,0.603c0.441,0.783,0.544,1.63,0.447,2.508
		c-0.008,0.073-0.058,0.151-0.11,0.205c-0.05,0.051-0.13,0.073-0.259,0.14c-0.157-0.123-0.35-0.251-0.52-0.405
		c-0.272-0.25-0.551-0.435-0.952-0.328c-0.348,0.093-0.608-0.117-0.844-0.327c-0.469-0.42-0.951-0.832-1.38-1.29
		c-0.626-0.668-1.405-0.969-2.259-1.117c-0.312,0.264-0.265,0.585-0.247,0.894c0.141,2.509-0.395,4.865-1.737,6.989
		c-1.181,1.869-2.229,3.803-3.213,5.773c-0.796,1.596-1.804,3.041-2.848,4.473c-0.109,0.148-0.288,0.248-0.473,0.406
		c-0.148-0.098-0.31-0.152-0.388-0.264c-0.479-0.68-1.24-0.803-1.953-1c-0.205-0.055-0.458,0.051-0.687,0.098
		c-0.422,0.088-0.841,0.205-1.267,0.273c-0.312,0.051-0.624-0.318-0.515-0.617c0.093-0.254,0.229-0.504,0.399-0.711
		c0.556-0.68,1.249-1.197,2.018-1.615c0.69-0.379,1.38-0.76,2.078-1.123c0.436-0.227,0.764-0.539,0.98-0.982
		c0.243-0.494,0.531-0.969,0.756-1.471c0.661-1.475,1.263-2.977,1.959-4.434c0.791-1.658,0.82-3.356,0.377-5.078
		c-0.234-0.91-0.553-1.811-0.947-2.664c-0.595-1.287-1.277-2.533-1.947-3.783c-0.376-0.7-0.398-0.688-1.313-0.774
		c-0.045-0.094-0.08-0.208-0.145-0.301c-0.81-1.179-0.262-2.234,0.298-3.287c0.165-0.31,0.366-0.601,0.533-0.91
		c0.289-0.529,0.766-0.808,1.355-0.705c0.386,0.067,0.76,0.205,1.134,0.325c0.601,0.193,1.19,0.383,1.845,0.229
		c0.199-0.047,0.452,0.064,0.665,0.146c1.13,0.435,1.791,1.45,1.706,3.031C124.02,40.114,123.897,40.707,124.215,41.311z"/>
	<path style="fill:#FFFFFF;" d="M198.237,55.477c-0.241,0.111-0.358-0.062-0.479-0.213c-0.365-0.462-0.682-0.979-1.111-1.373
		c-0.255-0.238-0.487-0.447-0.673-0.76c-0.216-0.362-0.516-0.703-0.854-0.956c-0.534-0.396-0.945-0.954-1.599-1.196
		c-0.113-0.041-0.19-0.226-0.244-0.36c-0.155-0.38-0.408-0.666-0.813-0.887c-0.152,0.032-0.354,0.043-0.53,0.118
		c-1.529,0.651-3.158,0.965-4.739,1.45c-1.237,0.381-2.469,0.793-3.714,1.152c-0.77,0.221-1.376,0.733-2.087,1.061
		c-0.476,0.22-0.961,0.34-1.463,0.424c-0.505,0.083-0.952-0.104-1.3-0.438c-0.365-0.351-0.665-0.768-0.979-1.168
		c-0.207-0.258-0.296-0.566-0.214-0.889c0.105-0.417,0.223-0.834,0.378-1.235c0.206-0.538,0.561-1.008,0.633-1.613
		c0.026-0.226,0.272-0.474,0.48-0.618c0.277-0.189,0.462-0.399,0.572-0.714c0.148-0.406,0.345-0.793,0.517-1.19
		c0.504-1.155,0.986-2.318,1.517-3.46c0.211-0.454,0.286-0.88,0.144-1.361c-0.259-0.882,0.03-1.609,0.727-2.163
		c0.199-0.157,0.53-0.307,0.745-0.25c0.523,0.14,1.016-0.031,1.527-0.05c0.412,0.287,0.764,0.632,1.351,0.632
		c0.389,0,0.78,0.31,1.202,0.495c0.068,0.202,0.141,0.418,0.23,0.677c0.196,0.047,0.419,0.099,0.64,0.151
		c-0.009,0.073,0.003,0.157-0.032,0.211c-0.099,0.155-0.326,0.31-0.31,0.443c0.051,0.424-0.055,0.772-0.308,1.096
		c-0.157,0.197-0.27,0.394-0.012,0.606c0.021,0.016-0.025,0.159-0.075,0.205c-0.487,0.449-0.976,0.902-1.484,1.327
		c-0.295,0.247-0.633,0.444-1.043,0.728c-0.43-0.159-1.018-0.199-1.456,0.133c-0.626,0.474-1.103,1.108-1.26,1.945
		c0.301,0.259,0.676,0.121,1.006,0.137c1.26,0.061,2.519,0.064,3.78,0.104c1.046,0.033,2.015-0.235,2.94-0.62
		c0.147-0.547-0.237-0.867-0.358-1.289c0.089-0.272,0.183-0.564,0.286-0.851c0.039-0.105,0.094-0.27,0.166-0.286
		c0.46-0.101,0.708-0.447,1.016-0.751c0.134-0.135,0.45-0.187,0.646-0.136c0.338,0.086,0.654,0.266,0.962,0.438
		c0.511,0.287,0.996,0.619,1.513,0.894c0.576,0.307,1.235,0.502,1.458,1.224c0.837,0.542,1.146,1.564,1.998,2.123
		c0.462,0.302,0.902,0.805,0.624,1.506c0.156,0.266,0.316,0.533,0.497,0.836c-0.716,1.338-0.338,2.706,0.037,4.126
		c-0.27-0.116-0.437-0.19-0.678-0.295c0.025,0.351,0.092,0.629,0.251,0.888L198.237,55.477z M188.879,48.506
		c1.037,0.035,1.14,0.007,1.941-0.445c-0.062-0.026-0.136-0.087-0.189-0.072C190.12,48.132,189.61,48.289,188.879,48.506z"/>
	<path style="fill:#FFFFFF;" d="M166.65,70.871c-0.945-0.002-1.888-0.002-3.111-0.002c1.232,0.619,2.208,1.107,3.498,1.092
		c-0.474,0.496-0.898,0.779-1.384,0.916c-0.64,0.182-1.301,0.318-1.96,0.414c-0.818,0.115-1.597,0.268-2.368,0.625
		c-0.586,0.273-1.22,0.518-1.857,0.691c-0.398,0.107-0.725,0.285-0.938,0.686c-0.301-0.113-0.561-0.191-0.805-0.305
		c-0.572-0.262-1.143-0.527-1.7-0.818c-0.312-0.164-0.617-0.355-0.883-0.586c-1.071-0.924-2.16-1.832-2.878-3.09
		c-0.057-0.1-0.155-0.18-0.243-0.256c-0.117-0.104-0.243-0.193-0.422-0.334c-0.306,0.119-0.637,0.232-0.952,0.379
		c-0.95,0.438-1.938,0.6-2.985,0.516c-0.664-0.053-1.347-0.066-2.005,0.021c-1.781,0.238-3.214-0.463-4.53-1.545
		c-0.147-0.121-0.297-0.24-0.515-0.414c0.155-0.172,0.252-0.344,0.397-0.43c0.695-0.396,1.439-0.574,2.257-0.57
		c1.332,0.006,2.672-0.021,3.954-0.475c0.185-0.066,0.357-0.158,0.514-0.227c0.326-0.418,0.063-0.762-0.063-1.125
		c-0.099-0.281-0.099-0.533,0.278-0.646c0.386-0.113,0.066-0.5,0.245-0.713c0.427-0.389,0.889-0.428,1.395-0.137
		c0.507,0.291,1.023,0.562,1.532,0.84c0.857-1.068,0.939-2.553,0.187-3.898c-0.164,0.158-0.295,0.33-0.467,0.441
		c-0.196,0.125-0.427,0.199-0.645,0.285c-0.221,0.088-0.44,0.174-0.666,0.246c-0.224,0.072-0.452,0.139-0.681,0.189
		c-0.231,0.049-0.471,0.121-0.7,0.102c-1.11-0.088-2.047-0.477-2.59-1.545c-0.133-0.262-0.358-0.479-0.591-0.779
		c0.082-0.248,0.665-0.35,0.47-0.838c0.284-0.361,0.525-0.771,0.863-1.07c0.285-0.248,0.703-0.17,1.007,0.023
		c0.862,0.557,1.8,0.521,2.727,0.35c0.975-0.182,1.774,0.098,2.522,0.674c0.374,0.287,0.76,0.561,1.132,0.848
		c0.296,0.23,0.425,0.514,0.404,0.918c-0.07,1.414-0.2,2.822-0.43,4.219c-0.051,0.307-0.132,0.611-0.184,0.918
		c-0.043,0.264-0.065,0.529-0.1,0.816c0.926,0.438,1.799,0.881,2.696,1.268c1.021,0.439,2.111,0.623,3.205,0.77
		c1.991,0.262,3.979,0.525,5.966,0.803c0.387,0.055,0.769,0.166,1.146,0.275c0.226,0.062,0.265,0.262,0.246,0.475L166.65,70.871z"/>
	<path style="fill:#FFFFFF;" d="M184.419,66.963c-0.534-0.408-1.062-0.811-1.622-1.24c-0.241,0.039-0.507,0.084-0.795,0.129
		c-0.03-0.123-0.094-0.238-0.077-0.338c0.061-0.344,0.146-0.684,0.231-1.021c0.075-0.299,0.108-0.631,0.263-0.883
		c0.221-0.365,0.272-0.719,0.219-1.123c-0.078-0.588-0.11-1.18-0.188-1.764c-0.136-1.033-0.506-1.975-1.144-2.809
		c-0.291-0.377-0.523-0.782-0.575-1.27c-0.012-0.117-0.096-0.285-0.047-0.341c0.485-0.558,0.08-1.248,0.263-1.837
		c1.072-0.168,1.949,0.223,2.706,0.875c0.453,0.391,0.91,0.415,1.424,0.243c1.118-0.37,2.271-0.651,3.222-1.417
		c0.241-0.195,0.525-0.354,0.812-0.479c0.558-0.242,0.989-0.568,1.28-1.139c0.278-0.549,0.687-0.626,1.177-0.293
		c0.68,0.461,1.304,1.002,2.075,1.332c0.186,0.08,0.293,0.344,0.437,0.525c0.211,0.268,0.419,0.535,0.623,0.799
		c-0.059,0.477-0.129,0.979-0.178,1.482c-0.042,0.416-0.104,0.561-0.544,0.61c-0.361,0.04-0.591,0.149-0.696,0.502
		c-0.423,1.409-0.53,2.851-0.427,4.312c0.004,0.072,0.062,0.141,0.131,0.281c0.523,0.1,1.093,0.209,1.662,0.318
		c0.321,0.408,0.301,0.896,0.371,1.346c0.084,0.562,0.047,0.566,0.445,1.062c-0.012,0.139-0.014,0.334-0.052,0.521
		c-0.117,0.582-0.398,0.797-0.984,0.723c-0.432-0.053-0.852-0.172-1.28-0.213c-0.858-0.082-1.724-0.182-2.547,0.23
		c0.04,0.207,0.07,0.385,0.112,0.605c-0.867,0.152-1.702,0.344-2.452,0.807c-0.228,0.137-0.525,0.197-0.795,0.211
		c-0.261,0.014-0.617,0.012-0.774-0.143c-0.489-0.484-1.2-0.361-1.732-0.711C184.851,66.787,184.6,66.924,184.419,66.963z
		 M190.42,62.396c0.084-1.729,0.174-3.33,0.017-4.932c-0.005-0.053-0.102-0.096-0.176-0.161c-0.532,0.441-1.072,0.882-1.602,1.335
		c-0.035,0.031-0.01,0.135-0.012,0.27c0.231,0.012,0.45,0.023,0.807,0.041c-0.964,0.74-2.09,0.896-2.852,1.674
		c-0.017,0.76,0.04,1.488,0.152,2.262C188,62.838,189.148,62.641,190.42,62.396z"/>
	<path style="fill:#FFFFFF;" d="M97.913,51.83c-0.981-0.049-1.652-0.594-2.178-1.366c-0.177-0.258-0.298-0.563-0.508-0.789
		c-0.66-0.711-0.892-1.551-0.842-2.493c0.157-0.159,0.317-0.312,0.468-0.477c0.491-0.532,1.049-0.634,1.66-0.281
		c0.476,0.274,0.939,0.568,1.377,0.833c0.347-0.056,0.379-0.332,0.441-0.534c0.357-1.166,0.691-2.338,1.026-3.51
		c0.043-0.15,0.095-0.317,0.066-0.463c-0.227-1.229-0.471-2.456-0.714-3.681c-0.006-0.03-0.056-0.052-0.148-0.13
		c-0.131,0.081-0.296,0.16-0.435,0.271c-1.074,0.858-1.089,0.887-0.509,2.156c0.153,0.336,0.303,0.647,0.106,1.001
		c-0.115,0.204-0.22,0.433-0.516,0.415c-0.243-0.015-0.477-0.069-0.601-0.304c-0.163-0.303-0.307-0.616-0.468-0.942
		c-0.546,0.489-0.546,0.489-1.146,0.572c-0.024,0.215-0.049,0.44-0.082,0.734c-0.247,0.109-0.525,0.232-0.73,0.323
		c-0.57-0.229-1.068-0.429-1.702-0.685c-0.11-0.157-0.303-0.448-0.514-0.723c-0.381-0.498-0.806-0.949-1.368-1.257
		c-0.422-0.23-0.796-0.52-0.87-1.13c0.269-0.302,0.481-0.699,1.02-0.807c0.501-0.1,0.897-0.448,1.24-0.831
		c0.22-0.246,0.5-0.354,0.816-0.434c1.6-0.409,3.194-0.837,4.79-1.259c0.545-0.144,1.022-0.403,1.361-0.868
		c0.23-0.318,0.546-0.445,0.921-0.422c0.824,0.051,1.636,0.168,2.397,0.504c0.528,0.233,0.679,0.517,0.619,1.114
		c-0.023,0.235-0.029,0.478-0.097,0.7c-0.105,0.352-0.093,0.688-0.031,1.046c0.228,1.317,0.439,2.638,0.636,3.96
		c0.039,0.266,0.004,0.548-0.028,0.818c-0.057,0.46-0.139,0.918-0.224,1.463c-0.104,0.055-0.264,0.168-0.441,0.223
		c-0.549,0.173-0.969,0.478-1.261,0.994c-0.226,0.4-0.468,0.839-1.039,0.833c-0.566,0.52-1.343,0.827-1.66,1.725
		c0.103,0.167,0.219,0.412,0.385,0.616c0.146,0.177,0.346,0.31,0.533,0.472c-0.053,0.432-0.106,0.854-0.155,1.256
		c-0.256,0.32-0.709,0.447-0.74,0.911c-0.299,0.159-0.598,0.318-0.896,0.477L97.913,51.83z"/>
	<path style="fill:#FFFFFF;" d="M136.33,65.607c-0.144-0.396-0.245-0.668-0.365-0.994c0.346-0.184,0.569-0.602,1.039-0.623
		c0.392-0.016,0.786-0.012,1.178,0.006c0.36,0.018,0.703,0.021,1.036-0.305c-0.171-0.697-0.26-1.447-1.204-1.729
		c0.211-0.248,0.304-0.359,0.344-0.404c-0.039-0.562-0.09-1.066-0.102-1.572c-0.021-0.832-0.118-1.648-0.38-2.441
		c-0.619-1.87-1.213-3.748-1.866-5.604c-0.156-0.444-0.211-0.836-0.007-1.245c0.361-0.725,0.658-1.463,1.517-1.838
		c0.896-0.39,1.727-0.934,2.562-1.453c0.359-0.224,0.654-0.552,1.014-0.861c0.723,0.064,1.327,0.372,1.784,0.96
		c0.201,0.257,0.31,0.538,0.239,0.879c-0.046,0.22-0.05,0.452-0.056,0.679c-0.016,0.668-0.259,0.995-0.95,1.116
		c-0.696,0.123-1.404,0.246-2.107,0.243c-0.614-0.001-1.16,0.13-1.771,0.43c0.063,1.198,0.529,2.305,0.932,3.431
		c1.109,0.207,2.164,0.006,3.237,0.037c0.148,0.914-0.425,1.43-0.951,1.928c-0.394,0.371-0.885,0.639-1.385,0.988
		c-0.021,0.746-0.038,1.525,0.254,2.346c0.23-0.023,0.46-0.016,0.67-0.074c0.566-0.16,1.129-0.309,1.724-0.172
		c0.156,0.842,0.002,1.525-0.672,2.039c-0.62,0.473-0.644,1.191-0.825,1.91c0.987,0.217,1.609-0.27,2.104-0.941
		c0.712,0.158,1.124,0.52,1.309,1.141c-0.012,0.076-0.018,0.154-0.032,0.232c-0.151,0.779-0.649,1.23-1.39,1.438
		c-0.416,0.117-0.837,0.217-1.257,0.314c-0.562,0.131-0.786,0.371-0.866,0.949c-0.062,0.428-0.12,0.854-0.193,1.281
		c-0.011,0.061-0.092,0.111-0.19,0.223c-0.73-0.469-0.579-1.422-1.143-2.045c-0.69,0.371-1.599-0.064-2.303,0.574
		c0.2,0.375,0.38,0.715,0.589,1.102c-0.14,0.121-0.245,0.219-0.359,0.309c-0.092,0.074-0.191,0.135-0.327,0.229
		c0.008,0.217,0.048,0.457,0.018,0.686c-0.084,0.631-0.596,0.91-1.194,0.689c-0.324-0.117-0.661-0.205-1.001-0.311
		c-0.125-0.428-0.289-0.861-0.371-1.312c-0.052-0.283,0.021-0.588,0.039-0.883c0.021-0.326,0.243-0.477,0.521-0.559
		c0.221-0.064,0.317-0.221,0.358-0.422C135.605,65.604,135.938,65.691,136.33,65.607z"/>
	<path style="fill:#FFFFFF;" d="M127.403,73.271c0.56-0.35,0.569-0.389,0.323-1.189c0.172-0.119,0.361-0.248,0.572-0.395
		c1.085,0.16,2.187,0.486,3.333,0.176c0.175-0.463,0.072-0.889-0.021-1.303c-0.087-0.385-0.387-0.58-0.747-0.676
		c-0.143-0.039-0.299-0.031-0.429-0.043c-0.194-0.477-0.424-0.895-0.528-1.342c-0.093-0.396-0.045-0.826-0.062-1.309
		c0.53-0.262,0.931-0.906,1.686-0.559c0.353-0.764,0.207-1.332-0.159-1.906c-0.604-0.166-1.192-0.02-1.764,0.062
		c-0.723,0.107-1.486,0.076-2.113,0.586c-0.199,0.162-0.494,0.182-0.778,0.01c-0.227-0.139-0.506-0.244-0.769-0.262
		c-0.805-0.047-1.375-0.529-1.973-0.975c-0.228-0.168-0.404-0.373-0.275-0.691c-0.33-0.42-0.176-0.713,0.245-0.936
		c0.248-0.775,0.924-0.854,1.577-0.953c0.576-0.088,1.109-0.111,1.717,0.09c1.04,0.35,2.162,0.42,3.271,0.35
		c0.108-0.008,0.215-0.078,0.385-0.143c-0.18-0.879-0.075-1.787-0.361-2.654c-0.13-0.391-0.182-0.738,0.242-1.041
		c0.172-0.123,0.188-0.462,0.286-0.731c0.963,0.002,1.741,0.423,2.574,0.862c-0.09,0.836-0.099,1.637-0.855,2.215
		c-0.429,0.328-0.43,0.582-0.29,1.416c0.697,0.092,1.395-0.021,2.092-0.111c0.195-0.025,0.387-0.08,0.583-0.104
		c0.452-0.053,0.702,0.129,0.724,0.549c0.02,0.35-0.005,0.701-0.01,1.086c-0.773,0.537-1.744,0.484-2.542,0.908
		c-0.207,0.324-0.106,0.682-0.096,1.029c0.011,0.471,0.065,0.947,0.004,1.408c-0.085,0.635-0.085,1.24,0.187,1.82
		c-0.192,0.273-0.415,0.494-0.517,0.762c-0.092,0.244-0.053,0.539-0.064,0.809c-0.018,0.506-0.029,1.008-0.04,1.449
		c0.371,0.402,0.781,0.393,1.165,0.393c1.027-0.008,2.043-0.105,3.016-0.482c0.288-0.109,0.599-0.176,0.901-0.244
		c0.063-0.014,0.144,0.049,0.283,0.104c-0.007,0.197-0.054,0.424-0.015,0.637c0.128,0.736-0.274,1.137-0.888,1.324
		c-0.749,0.229-1.523,0.391-2.293,0.541c-1.276,0.248-2.566,0.418-3.756,1.002c-0.3,0.146-0.495,0.291-0.63,0.623
		c-0.197,0.49-0.448,0.557-0.941,0.422c-0.79-0.215-1.424-0.619-1.75-1.414C127.755,74.078,127.596,73.719,127.403,73.271z"/>
	<path style="fill:#FFFFFF;" d="M149.282,50.293c0.359,0.685,0.278,1.312-0.059,1.945c-0.186,0.344-0.272,0.739-0.415,1.105
		c-0.072,0.181-0.128,0.428-0.27,0.512c-0.697,0.406-0.959,1.127-1.347,1.758c-0.056,0.091-0.158,0.152-0.245,0.234
		c-0.46-0.332-0.863-0.77-1.357-0.936c-0.45-0.148-1,0-1.477,0.018c-0.252-0.246-0.138-0.447-0.008-0.659
		c0.532-0.854,1.24-1.534,2.129-1.993c0.586-0.303,0.844-0.761,0.996-1.373c0.225-0.904,0.288-1.78-0.05-2.67
		c-0.228-0.601-0.427-1.208-1.081-1.348c-0.178-0.445,0.364-0.704,0.096-1.072c0.172-0.29,0.343-0.58,0.482-0.815
		c0.605-0.074,1.108-0.141,1.614-0.192c0.149-0.016,0.323-0.027,0.455,0.029c0.798,0.339,1.643,0.324,2.448,0.188
		c1.142-0.191,1.956,0.447,2.84,0.927c0.161,0.088,0.345,0.497,0.279,0.588c-0.386,0.535-0.005,1.048,0.006,1.556
		c0.015,0.703,0.085,0.702-0.675,0.861c-0.032,0.007-0.059,0.041-0.138,0.094c-0.062,0.219-0.145,0.479-0.214,0.744
		c-0.134,0.525-0.229,1.037-0.521,1.539c-0.303,0.519-0.328,1.199-0.468,1.781c0.926,0.951,2.404,1.576,3.708,1.587
		c0.309-0.279,0.392-0.661,0.481-1.048c0.074-0.338,0.173-0.672,0.248-0.964c0.291-0.086,0.392,0.049,0.385,0.208
		c-0.048,1.129,0.496,2.058,1.041,2.959c0.373,0.615,0.315,1.277,0.425,1.923c0.016,0.089-0.171,0.292-0.284,0.31
		c-0.308,0.051-0.631,0.068-0.939,0.029c-1.053-0.137-2.1-0.312-3.152-0.456c-0.467-0.063-0.936-0.108-1.407-0.12
		c-1.413-0.031-2.403-1.168-2.194-2.596c0.152-1.047,0.363-2.089,0.536-3.135c0.126-0.777,0.237-1.559,0.346-2.338
		c0.02-0.147-0.007-0.3-0.012-0.454C150.646,49.112,150.646,49.112,149.282,50.293z"/>
	<path style="fill:#FFFFFF;" d="M170.967,65.631c-0.769,0.258-0.769,0.258-1.158,1.129c-0.07,0-0.159,0.023-0.213-0.01
		c-0.438-0.256-0.84-0.631-1.312-0.764c-0.518-0.143-0.904-0.428-1.331-0.703c-0.321-0.207-0.718-0.311-1.093-0.418
		c-1.009-0.289-1.722-0.881-2.071-1.891c-0.089-0.258-0.246-0.492-0.349-0.748c-0.055-0.141-0.132-0.322-0.09-0.449
		c0.336-0.98,0.127-2.02,0.356-3.01c0.023-0.102,0.137-0.182,0.192-0.258c0.102-0.025,0.19-0.084,0.244-0.059
		c0.77,0.355,1.449,0.137,2.099-0.312c0.971-0.67,1.937-1.347,2.922-2c1.245-0.828,2.521-1.606,3.937-2.121
		c0.134-0.049,0.284-0.049,0.53-0.086c-0.239,0.572-0.483,0.957-0.945,1.248c-0.596,0.373-1.111,0.867-1.688,1.275
		c-0.387,0.272-0.506,0.642-0.646,1.219c0.713-0.332,1.16-0.767,1.669-1.104c0.493-0.326,0.971-0.67,1.466-0.988
		c0.525-0.339,1.062-0.66,1.592-0.987c0.214,0.218,0.073,0.396-0.037,0.534c-0.171,0.214-0.405,0.377-0.572,0.594
		c-0.31,0.404-0.609,0.815-0.87,1.25c-0.325,0.538-0.567,1.129-0.919,1.648c-0.335,0.502-0.487,1.047-0.659,1.611
		c-0.216,0.701-0.591,1.354-0.931,2.104c0.124,0.068,0.276,0.156,0.44,0.246c-0.112,0.133-0.283,0.244-0.32,0.393
		c-0.127,0.49-0.12,1.033-0.329,1.479C170.684,64.871,170.747,65.197,170.967,65.631z"/>
	<path style="fill:#FFFFFF;" d="M49.366,27.736c-0.196-0.209-0.429-0.425-0.619-0.673c-0.115-0.149-0.251-0.361-0.229-0.524
		c0.116-0.829-0.336-1.524-0.478-2.289c-0.064-0.344-0.137-0.697-0.117-1.042c0.011-0.209,0.189-0.41,0.316-0.661
		c-0.021-0.497-0.317-0.89-0.758-1.201c-0.07-0.995,0.471-1.635,1.223-2.112c0.443-0.281,0.855-0.526,1.005-1.083
		c0.055-0.21,0.271-0.377,0.463-0.626c0.197,0.201,0.332,0.322,0.448,0.459c0.816,0.958,1.638,1.912,2.44,2.882
		c0.828,1,1.619,2.021,2.202,3.199c0.603,1.22,0.683,2.501,0.592,3.804c-0.053,0.737-0.251,1.463-0.376,2.152
		c-0.279,0.243-0.566,0.292-0.786,0.087c-0.188-0.177-0.287-0.453-0.441-0.712c-0.189-0.018-0.381-0.044-0.574-0.053
		c-0.15-0.006-0.301,0.008-0.444,0.014c-0.071,0.246-0.123,0.428-0.175,0.605c-0.08,0.007-0.174,0.045-0.224,0.014
		c-0.363-0.23-0.709-0.491-1.082-0.704c-0.104-0.06-0.338-0.042-0.41,0.036c-0.077,0.083-0.082,0.298-0.032,0.421
		c0.108,0.269,0.271,0.515,0.405,0.757c-0.098,0.08-0.131,0.128-0.158,0.125c-0.193-0.022-0.386-0.055-0.646-0.096
		c-0.098-0.158-0.247-0.342-0.334-0.553c-0.194-0.473-0.332-0.973-1.009-0.943c-0.082,0.004-0.235-0.223-0.249-0.354
		C49.294,28.407,49.341,28.14,49.366,27.736z"/>
	<path style="fill:#FFFFFF;" d="M21.114,63.783c-0.032,0.352-0.004,0.516-0.064,0.635c-0.49,0.986-0.928,1.984-1.204,3.061
		c-0.122,0.475-0.479,0.893-0.733,1.332c-0.394,0.682-0.804,1.352-1.179,2.041c-0.108,0.199-0.226,0.494-0.154,0.668
		c0.249,0.619-0.103,1.154-0.185,1.809c0.376,0.297,0.767,0.609,1.198,0.951c-0.007,0.141-0.062,0.373-0.017,0.584
		c0.038,0.178,0.192,0.332,0.314,0.527c-0.534,0.668-1.279,1.037-1.973,1.432c-0.681,0.387-1.732,0.004-2.187-0.654
		c-0.111-0.162-0.212-0.334-0.31-0.504c-0.199-0.348-0.438-0.639-0.826-0.805c-0.594-0.254-0.897-0.74-0.979-1.371
		c-0.064-0.502-0.137-1.002-0.199-1.451c0.491-0.508,1.141-0.688,1.445-1.273c0.05-0.094,0.277-0.109,0.427-0.139
		c0.881-0.156,1.599-0.584,2.246-1.201c1.522-1.449,2.88-3.018,3.87-4.885C20.714,64.336,20.863,64.152,21.114,63.783z"/>
	<path style="fill:#FFFFFF;" d="M173.797,45.477c0.634-0.384,0.654-0.375,1.208-0.183c0.288,0.1,0.328,0.298,0.314,0.547
		c-0.122,0.192-0.272,0.063-0.413,0.046c-0.112-0.014-0.228-0.015-0.387-0.025c-0.005,0.417,0.45,0.526,0.53,0.897
		c-0.333,0.299-0.132,0.649-0.008,0.967c-0.109,0.268-0.328,0.214-0.511,0.242c-0.144,0.021-0.284,0.046-0.483,0.08
		c0.258,0.352,0.472,0.646,0.716,0.984c-0.584,0.189-0.83-0.365-1.315-0.354c-0.057,0.263-0.12,0.54-0.204,0.914
		c-0.249-0.22-0.42-0.372-0.589-0.525c-0.46-0.415-0.812-0.938-1.431-1.192c-0.305-0.126-0.509-0.479-0.778-0.708
		c-0.356-0.303-0.698-0.648-1.106-0.862c-0.453-0.235-0.713-0.59-0.971-1.08c0.077-0.639,0.239-1.312,0.556-1.954
		c0.221-0.452,0.565-0.713,1.036-0.887c0.375-0.137,0.736-0.146,1.001,0.084c0.634,0.547,1.386,0.882,2.083,1.316
		c0.342,0.212,0.6,0.459,0.516,0.952C173.519,44.956,173.706,45.217,173.797,45.477z"/>
	<path style="fill:#FFFFFF;" d="M10.512,32.427c0.265-0.131,0.521-0.222,0.735-0.372c0.218-0.154,0.364-0.451,0.596-0.537
		c0.568-0.208,0.895-0.562,0.997-1.152c0.017-0.099,0.127-0.183,0.225-0.314c0.633,0.338,1.256,0.669,1.876,1.005
		c0.239,0.129,0.459,0.305,0.71,0.398c0.346,0.128,0.603,0.28,0.761,0.658c0.091,0.219,0.382,0.403,0.624,0.502
		c0.888,0.365,1.229,1.013,1.127,1.908c-0.248,0.228-0.56,0.392-0.679,0.645c-0.302,0.648-0.804,0.789-1.436,0.736
		c-0.145,0.228-0.289,0.455-0.434,0.682c-0.159-0.036-0.298-0.028-0.379-0.093c-0.521-0.417-1.055-0.825-1.536-1.286
		c-0.325-0.31-0.647-0.567-1.105-0.618c-0.116-0.013-0.228-0.063-0.344-0.08C11.053,34.341,10.666,33.509,10.512,32.427z"/>
	<path style="fill:#FFFFFF;" d="M65.074,60.035c-0.558,1.334-0.797,1.506-2.121,1.416c-0.188,0.254-0.442,0.6-0.69,0.932
		c-0.569,0.021-1.106,0.039-1.743,0.062c0.03,0.014-0.048-0.006-0.108-0.051c-0.724-0.549-1.173-1.201-1.07-2.189
		c0.037-0.346-0.232-0.729-0.386-1.084c-0.104-0.246-0.247-0.475-0.369-0.701c0.549-0.604,0.999-1.217,1.63-1.675
		c0.29-0.21,0.535-0.284,0.859-0.196c0.338,0.094,0.686,0.159,1.017,0.276c0.174,0.063,0.369,0.175,0.469,0.323
		c0.573,0.85,1.458,1.412,2.043,2.248C64.759,59.621,64.926,59.834,65.074,60.035z"/>
	<path style="fill:#FFFFFF;" d="M6.406,50.169c0.369-0.977,1.345-1.235,2.042-1.835c0.495,0.205,0.963,0.56,1.419,0.545
		c0.574-0.02,0.862,0.472,1.33,0.429c0.321,0.959,0.321,0.959,1.362,1.612c0.236,0.75,0.455,1.445,0.697,2.215
		c-0.33,0.032-0.725-0.005-1.05,0.127c-0.308,0.123-0.542,0.426-0.833,0.669c-0.478,0.018-0.982,0.033-1.495,0.053
		c-0.319-0.313-0.644-0.596-0.927-0.915c-0.29-0.329-0.609-0.597-1.006-0.793c-0.547-0.27-0.955-0.662-1.097-1.303
		C6.792,50.718,6.593,50.496,6.406,50.169z"/>
	<path style="fill:#FFFFFF;" d="M126.641,56.047c0.129-0.301,0.232-0.544,0.33-0.775c-0.147-0.168-0.273-0.311-0.396-0.45
		c0.424-0.575,1.022-0.801,1.684-0.868c0.508-0.053,0.869-0.318,1.195-0.678c0.555-0.611,1.104-1.229,1.684-1.818
		c0.467-0.474,0.967-0.92,1.475-1.353c0.164-0.14,0.399-0.198,0.639-0.31c0.29,0.502,0.119,0.977,0.234,1.467
		c-1.834,1.576-3.567,3.225-4.591,5.396C127.942,56.77,127.942,56.77,126.641,56.047z"/>
	<path style="fill:#FFFFFF;" d="M239.361,65.49c0.609,0.234,0.609,0.234,0.537,0.943c-0.361,0.145-0.743,0.295-1.191,0.471
		c0.005-0.178-0.025-0.354,0.012-0.369C239.174,66.355,239.549,66.121,239.361,65.49z"/>
	<path style="fill:#FFFFFF;" d="M30.745,68.393c-0.034,1.074-0.113,1.301-0.659,1.9l0.03,0.027c0.22-0.637,0.438-1.27,0.655-1.906
		L30.745,68.393z"/>
	<path style="fill:#FFFFFF;" d="M199.616,50.753c-0.469-0.044-0.469-0.044-0.715-0.69C199.225,50.376,199.422,50.565,199.616,50.753
		z"/>
	<path style="fill:#FFFFFF;" d="M236.766,67.209c-0.147,0.334-0.216,0.492-0.279,0.635c-0.274,0.004-0.429-0.123-0.38-0.328
		C236.182,67.189,236.463,67.398,236.766,67.209z"/>
	<path style="fill:#FFFFFF;" d="M98.631,41.642c-0.118-0.146-0.233-0.24-0.275-0.359c-0.021-0.059,0.099-0.165,0.153-0.249
		c0.107,0.086,0.241,0.158,0.311,0.269C98.846,41.346,98.725,41.48,98.631,41.642z"/>
	<path style="fill:#FFFFFF;" d="M242.642,78.131c0.209,0.15,0.321,0.332,0.136,0.568c-0.035,0.047-0.138,0.08-0.194,0.064
		c-0.059-0.018-0.146-0.117-0.134-0.152c0.057-0.172,0.144-0.334,0.223-0.502C242.672,78.107,242.642,78.131,242.642,78.131z"/>
	<path style="fill:#FFFFFF;" d="M93.601,78.057L93.6,78.027c-0.199,0.064-0.398,0.129-0.598,0.191h0.026
		C93.149,77.918,93.381,78.008,93.601,78.057z"/>
	<path style="fill:#FFFFFF;" d="M166.641,70.867c0.132-0.016,0.261-0.033,0.392-0.047c0.003,0.014,0.005,0.025,0.005,0.039
		c-0.129,0.004-0.256,0.008-0.387,0.012L166.641,70.867z"/>
	<path style="fill:#FFFFFF;" d="M241.53,67.285c0.054,0.066,0.11,0.137,0.166,0.205c-0.062,0.025-0.131,0.08-0.188,0.07
		c-0.065-0.01-0.117-0.08-0.176-0.123C241.39,67.395,241.443,67.352,241.53,67.285z"/>
	<path style="fill:#FFFFFF;" d="M55.757,40.52c-0.012-0.066-0.023-0.133-0.036-0.199c0.018,0.062,0.033,0.126,0.052,0.189
		L55.757,40.52z"/>
	<path style="fill:#FFFFFF;" d="M57.075,33.69c0.012-0.095,0.024-0.191,0.037-0.287c0.033,0.015,0.065,0.031,0.099,0.046
		c-0.055,0.074-0.109,0.147-0.163,0.222L57.075,33.69z"/>
	<path style="fill:#FFFFFF;" d="M31.191,29.946c-0.125-0.104-0.25-0.207-0.376-0.309c-0.002,0.001-0.028,0.022-0.028,0.022
		c0.13,0.089,0.262,0.177,0.396,0.263L31.191,29.946z"/>
	<path style="fill:#FFFFFF;" d="M31.183,29.923c0.053-0.005,0.104-0.011,0.157-0.018c-0.024-0.007-0.054-0.028-0.074-0.022
		c-0.027,0.009-0.05,0.037-0.073,0.06C31.191,29.946,31.183,29.923,31.183,29.923z"/>
	<path style="fill:#FFFFFF;" d="M216.696,79.344c0.023,0.027,0.047,0.057,0.07,0.084c-0.054,0.031-0.108,0.072-0.167,0.092
		c-0.019,0.008-0.056-0.045-0.082-0.07C216.576,79.414,216.635,79.379,216.696,79.344z"/>
	<path style="fill:#FFFFFF;" d="M93.002,78.219c0.007,0,0.013-0.002,0.023-0.002C93.028,78.219,93.002,78.219,93.002,78.219z"/>
	<path style="fill:#FFFFFF;" d="M35.389,56.928c-0.26-0.136-0.131-0.3-0.031-0.462l-0.026-0.036c0.01,0.172,0.021,0.343,0.029,0.515
		L35.389,56.928z"/>
	<path style="fill:#FFFFFF;" d="M35.577,55.861c0,0.198,0,0.398,0,0.597l0.025-0.028c-0.09,0-0.181,0-0.271,0l0.026,0.036
		C35.431,56.264,35.504,56.063,35.577,55.861z"/>
	<path style="fill:#FFFFFF;" d="M208.158,55.792c0.028-0.013,0.057-0.026,0.082-0.042c0.015,0.042,0.026,0.086,0.035,0.127
		c-0.03-0.003-0.065,0-0.091-0.014C208.168,55.854,208.165,55.818,208.158,55.792z"/>
	<path style="fill:#FFFFFF;" d="M207.875,71.723c-0.015-0.031-0.028-0.062-0.04-0.092c0.045-0.008,0.092-0.014,0.139-0.021
		c-0.003,0.033,0.004,0.074-0.012,0.098C207.95,71.725,207.905,71.717,207.875,71.723z"/>
	<path style="fill:#FFFFFF;" d="M198.266,55.484c-0.017,0.055-0.03,0.109-0.047,0.165c0.021-0.024,0.054-0.05,0.054-0.073
		c0-0.033-0.025-0.066-0.037-0.099L198.266,55.484z"/>
</g>
</svg>
